# BuoyGreen - Lorient / Keroman 1943, generated by Tools/generate-lorient.py
# metres; Y up; OBJ (x, y, z) = (-north, up, -east); import roll 90 yaw 90
o BuoyGreen
v 1498.954 -2.000 -300.340
v 1498.954 -2.000 -299.660
v 1498.954 1.200 -300.340
v 1498.954 1.200 -299.660
v 1499.200 4.500 -300.000
v 1499.353 -2.000 -300.890
v 1499.353 -2.000 -299.110
v 1499.353 1.200 -300.890
v 1499.353 1.200 -299.110
v 1499.434 4.500 -300.566
v 1499.434 4.500 -299.434
v 1499.783 1.200 -300.125
v 1499.783 1.200 -299.875
v 1499.783 4.500 -300.125
v 1499.783 4.500 -299.875
v 1500.000 -2.000 -301.100
v 1500.000 -2.000 -298.900
v 1500.000 1.200 -301.100
v 1500.000 1.200 -300.250
v 1500.000 1.200 -299.750
v 1500.000 1.200 -298.900
v 1500.000 4.500 -300.800
v 1500.000 4.500 -300.250
v 1500.000 4.500 -299.750
v 1500.000 4.500 -299.200
v 1500.000 5.800 -300.000
v 1500.217 1.200 -300.125
v 1500.217 1.200 -299.875
v 1500.217 4.500 -300.125
v 1500.217 4.500 -299.875
v 1500.566 4.500 -300.566
v 1500.566 4.500 -299.434
v 1500.647 -2.000 -300.890
v 1500.647 -2.000 -299.110
v 1500.647 1.200 -300.890
v 1500.647 1.200 -299.110
v 1500.800 4.500 -300.000
v 1501.046 -2.000 -300.340
v 1501.046 -2.000 -299.660
v 1501.046 1.200 -300.340
v 1501.046 1.200 -299.660
v 2898.954 -2.000 -260.340
v 2898.954 -2.000 -259.660
v 2898.954 1.200 -260.340
v 2898.954 1.200 -259.660
v 2899.200 4.500 -260.000
v 2899.353 -2.000 -260.890
v 2899.353 -2.000 -259.110
v 2899.353 1.200 -260.890
v 2899.353 1.200 -259.110
v 2899.434 4.500 -260.566
v 2899.434 4.500 -259.434
v 2899.783 1.200 -260.125
v 2899.783 1.200 -259.875
v 2899.783 4.500 -260.125
v 2899.783 4.500 -259.875
v 2900.000 -2.000 -261.100
v 2900.000 -2.000 -258.900
v 2900.000 1.200 -261.100
v 2900.000 1.200 -260.250
v 2900.000 1.200 -259.750
v 2900.000 1.200 -258.900
v 2900.000 4.500 -260.800
v 2900.000 4.500 -260.250
v 2900.000 4.500 -259.750
v 2900.000 4.500 -259.200
v 2900.000 5.800 -260.000
v 2900.217 1.200 -260.125
v 2900.217 1.200 -259.875
v 2900.217 4.500 -260.125
v 2900.217 4.500 -259.875
v 2900.566 4.500 -260.566
v 2900.566 4.500 -259.434
v 2900.647 -2.000 -260.890
v 2900.647 -2.000 -259.110
v 2900.647 1.200 -260.890
v 2900.647 1.200 -259.110
v 2900.800 4.500 -260.000
v 2901.046 -2.000 -260.340
v 2901.046 -2.000 -259.660
v 2901.046 1.200 -260.340
v 2901.046 1.200 -259.660
v 4148.954 -2.000 149.660
v 4148.954 -2.000 150.340
v 4148.954 1.200 149.660
v 4148.954 1.200 150.340
v 4149.200 4.500 150.000
v 4149.353 -2.000 149.110
v 4149.353 -2.000 150.890
v 4149.353 1.200 149.110
v 4149.353 1.200 150.890
v 4149.434 4.500 149.434
v 4149.434 4.500 150.566
v 4149.783 1.200 149.875
v 4149.783 1.200 150.125
v 4149.783 4.500 149.875
v 4149.783 4.500 150.125
v 4150.000 -2.000 148.900
v 4150.000 -2.000 151.100
v 4150.000 1.200 148.900
v 4150.000 1.200 149.750
v 4150.000 1.200 150.250
v 4150.000 1.200 151.100
v 4150.000 4.500 149.200
v 4150.000 4.500 149.750
v 4150.000 4.500 150.250
v 4150.000 4.500 150.800
v 4150.000 5.800 150.000
v 4150.217 1.200 149.875
v 4150.217 1.200 150.125
v 4150.217 4.500 149.875
v 4150.217 4.500 150.125
v 4150.566 4.500 149.434
v 4150.566 4.500 150.566
v 4150.647 -2.000 149.110
v 4150.647 -2.000 150.890
v 4150.647 1.200 149.110
v 4150.647 1.200 150.890
v 4150.800 4.500 150.000
v 4151.046 -2.000 149.660
v 4151.046 -2.000 150.340
v 4151.046 1.200 149.660
v 4151.046 1.200 150.340
vt -4150.6466 -2.0000
vt -4150.6466 1.2000
vt -4150.5657 4.5000
vt -4150.2165 1.2000
vt -4150.2165 4.5000
vt -4150.0000 -2.0000
vt -4150.0000 1.2000
vt -4150.0000 4.5000
vt -4150.0000 5.8000
vt -4149.7835 1.2000
vt -4149.7835 4.5000
vt -4149.4343 4.5000
vt -4149.3534 -2.0000
vt -4149.3534 1.2000
vt -2900.6466 -2.0000
vt -2900.6466 1.2000
vt -2900.5657 4.5000
vt -2900.2165 1.2000
vt -2900.2165 4.5000
vt -2900.0000 -2.0000
vt -2900.0000 1.2000
vt -2900.0000 4.5000
vt -2900.0000 5.8000
vt -2899.7835 1.2000
vt -2899.7835 4.5000
vt -2899.4343 4.5000
vt -2899.3534 -2.0000
vt -2899.3534 1.2000
vt -1500.6466 -2.0000
vt -1500.6466 1.2000
vt -1500.5657 4.5000
vt -1500.2165 1.2000
vt -1500.2165 4.5000
vt -1500.0000 -2.0000
vt -1500.0000 1.2000
vt -1500.0000 4.5000
vt -1500.0000 5.8000
vt -1499.7835 1.2000
vt -1499.7835 4.5000
vt -1499.4343 4.5000
vt -1499.3534 -2.0000
vt -1499.3534 1.2000
vt -151.1000 -4150.0000
vt -150.8899 -4150.6466
vt -150.8899 -4149.3534
vt -150.8899 -2.0000
vt -150.8899 1.2000
vt -150.5657 4.5000
vt -150.3399 -4151.0462
vt -150.3399 -4148.9538
vt -150.3399 -2.0000
vt -150.3399 1.2000
vt -150.2500 -4150.0000
vt -150.1250 -4150.2165
vt -150.1250 -4149.7835
vt -150.1250 1.2000
vt -150.1250 4.5000
vt -150.0000 4.5000
vt -150.0000 5.8000
vt -149.8750 -4150.2165
vt -149.8750 -4149.7835
vt -149.8750 1.2000
vt -149.8750 4.5000
vt -149.7500 -4150.0000
vt -149.6601 -4151.0462
vt -149.6601 -4148.9538
vt -149.6601 -2.0000
vt -149.6601 1.2000
vt -149.4343 4.5000
vt -149.1101 -4150.6466
vt -149.1101 -4149.3534
vt -149.1101 -2.0000
vt -149.1101 1.2000
vt -148.9000 -4150.0000
vt 258.9000 -2900.0000
vt 259.1101 -2900.6466
vt 259.1101 -2899.3534
vt 259.1101 -2.0000
vt 259.1101 1.2000
vt 259.4343 4.5000
vt 259.6601 -2901.0462
vt 259.6601 -2898.9538
vt 259.6601 -2.0000
vt 259.6601 1.2000
vt 259.7500 -2900.0000
vt 259.8750 -2900.2165
vt 259.8750 -2899.7835
vt 259.8750 1.2000
vt 259.8750 4.5000
vt 260.0000 4.5000
vt 260.0000 5.8000
vt 260.1250 -2900.2165
vt 260.1250 -2899.7835
vt 260.1250 1.2000
vt 260.1250 4.5000
vt 260.2500 -2900.0000
vt 260.3399 -2901.0462
vt 260.3399 -2898.9538
vt 260.3399 -2.0000
vt 260.3399 1.2000
vt 260.5657 4.5000
vt 260.8899 -2900.6466
vt 260.8899 -2899.3534
vt 260.8899 -2.0000
vt 260.8899 1.2000
vt 261.1000 -2900.0000
vt 298.9000 -1500.0000
vt 299.1101 -1500.6466
vt 299.1101 -1499.3534
vt 299.1101 -2.0000
vt 299.1101 1.2000
vt 299.4343 4.5000
vt 299.6601 -1501.0462
vt 299.6601 -1498.9538
vt 299.6601 -2.0000
vt 299.6601 1.2000
vt 299.7500 -1500.0000
vt 299.8750 -1500.2165
vt 299.8750 -1499.7835
vt 299.8750 1.2000
vt 299.8750 4.5000
vt 300.0000 4.5000
vt 300.0000 5.8000
vt 300.1250 -1500.2165
vt 300.1250 -1499.7835
vt 300.1250 1.2000
vt 300.1250 4.5000
vt 300.2500 -1500.0000
vt 300.3399 -1501.0462
vt 300.3399 -1498.9538
vt 300.3399 -2.0000
vt 300.3399 1.2000
vt 300.5657 4.5000
vt 300.8899 -1500.6466
vt 300.8899 -1499.3534
vt 300.8899 -2.0000
vt 300.8899 1.2000
vt 301.1000 -1500.0000
vn -1.000 0.000 -0.000
vn -0.809 -0.000 -0.588
vn -0.809 0.000 0.588
vn -0.803 0.494 -0.333
vn -0.803 0.494 0.333
vn -0.500 -0.000 -0.866
vn -0.500 0.000 0.866
vn -0.333 0.494 -0.803
vn -0.333 0.494 0.803
vn -0.309 0.000 -0.951
vn -0.309 0.000 0.951
vn -0.000 1.000 -0.000
vn 0.309 0.000 -0.951
vn 0.309 0.000 0.951
vn 0.333 0.494 -0.803
vn 0.333 0.494 0.803
vn 0.500 0.000 -0.866
vn 0.500 0.000 0.866
vn 0.803 0.494 -0.333
vn 0.803 0.494 0.333
vn 0.809 0.000 -0.588
vn 0.809 0.000 0.588
vn 1.000 0.000 -0.000
f 57/20/10 47/27/10 49/28/10
f 57/20/10 49/28/10 59/21/10
f 47/104/2 42/99/2 44/100/2
f 47/104/2 44/100/2 49/105/2
f 42/99/1 43/83/1 45/84/1
f 42/99/1 45/84/1 44/100/1
f 43/83/3 48/78/3 50/79/3
f 43/83/3 50/79/3 45/84/3
f 48/27/11 58/20/11 62/21/11
f 48/27/11 62/21/11 50/28/11
f 58/20/14 75/15/14 77/16/14
f 58/20/14 77/16/14 62/21/14
f 75/78/22 80/83/22 82/84/22
f 75/78/22 82/84/22 77/79/22
f 80/83/23 79/99/23 81/100/23
f 80/83/23 81/100/23 82/84/23
f 79/99/21 74/104/21 76/105/21
f 79/99/21 76/105/21 81/100/21
f 74/15/13 57/20/13 59/21/13
f 74/15/13 59/21/13 76/16/13
f 81/97/12 76/102/12 59/106/12
f 81/97/12 59/106/12 49/103/12
f 81/97/12 49/103/12 44/98/12
f 81/97/12 44/98/12 45/82/12
f 81/97/12 45/82/12 50/77/12
f 81/97/12 50/77/12 62/75/12
f 81/97/12 62/75/12 77/76/12
f 81/97/12 77/76/12 82/81/12
f 60/21/6 53/24/6 55/25/6
f 60/21/6 55/25/6 64/22/6
f 53/94/1 54/88/1 56/89/1
f 53/94/1 56/89/1 55/95/1
f 54/24/7 61/21/7 65/22/7
f 54/24/7 65/22/7 56/25/7
f 61/21/18 69/18/18 71/19/18
f 61/21/18 71/19/18 65/22/18
f 69/88/23 68/94/23 70/95/23
f 69/88/23 70/95/23 71/89/23
f 68/18/17 60/21/17 64/22/17
f 68/18/17 64/22/17 70/19/17
f 71/86/12 70/92/12 64/96/12
f 71/86/12 64/96/12 55/93/12
f 71/86/12 55/93/12 56/87/12
f 71/86/12 56/87/12 65/85/12
f 63/22/8 51/26/8 67/23/8
f 51/101/4 46/90/4 67/91/4
f 46/90/5 52/80/5 67/91/5
f 52/26/9 66/22/9 67/23/9
f 66/22/16 73/17/16 67/23/16
f 73/80/20 78/90/20 67/91/20
f 78/90/19 72/101/19 67/91/19
f 72/17/15 63/22/15 67/23/15
f 16/34/10 6/41/10 8/42/10
f 16/34/10 8/42/10 18/35/10
f 6/136/2 1/131/2 3/132/2
f 6/136/2 3/132/2 8/137/2
f 1/131/1 2/115/1 4/116/1
f 1/131/1 4/116/1 3/132/1
f 2/115/3 7/110/3 9/111/3
f 2/115/3 9/111/3 4/116/3
f 7/41/11 17/34/11 21/35/11
f 7/41/11 21/35/11 9/42/11
f 17/34/14 34/29/14 36/30/14
f 17/34/14 36/30/14 21/35/14
f 34/110/22 39/115/22 41/116/22
f 34/110/22 41/116/22 36/111/22
f 39/115/23 38/131/23 40/132/23
f 39/115/23 40/132/23 41/116/23
f 38/131/21 33/136/21 35/137/21
f 38/131/21 35/137/21 40/132/21
f 33/29/13 16/34/13 18/35/13
f 33/29/13 18/35/13 35/30/13
f 40/129/12 35/134/12 18/138/12
f 40/129/12 18/138/12 8/135/12
f 40/129/12 8/135/12 3/130/12
f 40/129/12 3/130/12 4/114/12
f 40/129/12 4/114/12 9/109/12
f 40/129/12 9/109/12 21/107/12
f 40/129/12 21/107/12 36/108/12
f 40/129/12 36/108/12 41/113/12
f 19/35/6 12/38/6 14/39/6
f 19/35/6 14/39/6 23/36/6
f 12/126/1 13/120/1 15/121/1
f 12/126/1 15/121/1 14/127/1
f 13/38/7 20/35/7 24/36/7
f 13/38/7 24/36/7 15/39/7
f 20/35/18 28/32/18 30/33/18
f 20/35/18 30/33/18 24/36/18
f 28/120/23 27/126/23 29/127/23
f 28/120/23 29/127/23 30/121/23
f 27/32/17 19/35/17 23/36/17
f 27/32/17 23/36/17 29/33/17
f 30/118/12 29/124/12 23/128/12
f 30/118/12 23/128/12 14/125/12
f 30/118/12 14/125/12 15/119/12
f 30/118/12 15/119/12 24/117/12
f 22/36/8 10/40/8 26/37/8
f 10/133/4 5/122/4 26/123/4
f 5/122/5 11/112/5 26/123/5
f 11/40/9 25/36/9 26/37/9
f 25/36/16 32/31/16 26/37/16
f 32/112/20 37/122/20 26/123/20
f 37/122/19 31/133/19 26/123/19
f 31/31/15 22/36/15 26/37/15
f 98/6/10 88/13/10 90/14/10
f 98/6/10 90/14/10 100/7/10
f 88/72/2 83/67/2 85/68/2
f 88/72/2 85/68/2 90/73/2
f 83/67/1 84/51/1 86/52/1
f 83/67/1 86/52/1 85/68/1
f 84/51/3 89/46/3 91/47/3
f 84/51/3 91/47/3 86/52/3
f 89/13/11 99/6/11 103/7/11
f 89/13/11 103/7/11 91/14/11
f 99/6/14 116/1/14 118/2/14
f 99/6/14 118/2/14 103/7/14
f 116/46/22 121/51/22 123/52/22
f 116/46/22 123/52/22 118/47/22
f 121/51/23 120/67/23 122/68/23
f 121/51/23 122/68/23 123/52/23
f 120/67/21 115/72/21 117/73/21
f 120/67/21 117/73/21 122/68/21
f 115/1/13 98/6/13 100/7/13
f 115/1/13 100/7/13 117/2/13
f 122/65/12 117/70/12 100/74/12
f 122/65/12 100/74/12 90/71/12
f 122/65/12 90/71/12 85/66/12
f 122/65/12 85/66/12 86/50/12
f 122/65/12 86/50/12 91/45/12
f 122/65/12 91/45/12 103/43/12
f 122/65/12 103/43/12 118/44/12
f 122/65/12 118/44/12 123/49/12
f 101/7/6 94/10/6 96/11/6
f 101/7/6 96/11/6 105/8/6
f 94/62/1 95/56/1 97/57/1
f 94/62/1 97/57/1 96/63/1
f 95/10/7 102/7/7 106/8/7
f 95/10/7 106/8/7 97/11/7
f 102/7/18 110/4/18 112/5/18
f 102/7/18 112/5/18 106/8/18
f 110/56/23 109/62/23 111/63/23
f 110/56/23 111/63/23 112/57/23
f 109/4/17 101/7/17 105/8/17
f 109/4/17 105/8/17 111/5/17
f 112/54/12 111/60/12 105/64/12
f 112/54/12 105/64/12 96/61/12
f 112/54/12 96/61/12 97/55/12
f 112/54/12 97/55/12 106/53/12
f 104/8/8 92/12/8 108/9/8
f 92/69/4 87/58/4 108/59/4
f 87/58/5 93/48/5 108/59/5
f 93/12/9 107/8/9 108/9/9
f 107/8/16 114/3/16 108/9/16
f 114/48/20 119/58/20 108/59/20
f 119/58/19 113/69/19 108/59/19
f 113/3/15 104/8/15 108/9/15
