# BuoyRed - Lorient / Keroman 1943, generated by Tools/generate-lorient.py
# metres; Y up; OBJ (x, y, z) = (-north, up, -east); import roll 90 yaw 90
o BuoyRed
v 1298.954 -2.000 -60.340
v 1298.954 -2.000 -59.660
v 1298.954 1.200 -60.340
v 1298.954 1.200 -59.660
v 1299.300 4.500 -60.000
v 1299.300 5.600 -60.000
v 1299.353 -2.000 -60.890
v 1299.353 -2.000 -59.110
v 1299.353 1.200 -60.890
v 1299.353 1.200 -59.110
v 1299.505 4.500 -60.495
v 1299.505 4.500 -59.505
v 1299.505 5.600 -60.495
v 1299.505 5.600 -59.505
v 1299.783 1.200 -60.125
v 1299.783 1.200 -59.875
v 1299.783 4.500 -60.125
v 1299.783 4.500 -59.875
v 1300.000 -2.000 -61.100
v 1300.000 -2.000 -58.900
v 1300.000 1.200 -61.100
v 1300.000 1.200 -60.250
v 1300.000 1.200 -59.750
v 1300.000 1.200 -58.900
v 1300.000 4.500 -60.700
v 1300.000 4.500 -60.250
v 1300.000 4.500 -59.750
v 1300.000 4.500 -59.300
v 1300.000 5.600 -60.700
v 1300.000 5.600 -59.300
v 1300.217 1.200 -60.125
v 1300.217 1.200 -59.875
v 1300.217 4.500 -60.125
v 1300.217 4.500 -59.875
v 1300.495 4.500 -60.495
v 1300.495 4.500 -59.505
v 1300.495 5.600 -60.495
v 1300.495 5.600 -59.505
v 1300.647 -2.000 -60.890
v 1300.647 -2.000 -59.110
v 1300.647 1.200 -60.890
v 1300.647 1.200 -59.110
v 1300.700 4.500 -60.000
v 1300.700 5.600 -60.000
v 1301.046 -2.000 -60.340
v 1301.046 -2.000 -59.660
v 1301.046 1.200 -60.340
v 1301.046 1.200 -59.660
v 2148.954 -2.000 9.660
v 2148.954 -2.000 10.340
v 2148.954 1.200 9.660
v 2148.954 1.200 10.340
v 2149.300 4.500 10.000
v 2149.300 5.600 10.000
v 2149.353 -2.000 9.110
v 2149.353 -2.000 10.890
v 2149.353 1.200 9.110
v 2149.353 1.200 10.890
v 2149.505 4.500 9.505
v 2149.505 4.500 10.495
v 2149.505 5.600 9.505
v 2149.505 5.600 10.495
v 2149.783 1.200 9.875
v 2149.783 1.200 10.125
v 2149.783 4.500 9.875
v 2149.783 4.500 10.125
v 2150.000 -2.000 8.900
v 2150.000 -2.000 11.100
v 2150.000 1.200 8.900
v 2150.000 1.200 9.750
v 2150.000 1.200 10.250
v 2150.000 1.200 11.100
v 2150.000 4.500 9.300
v 2150.000 4.500 9.750
v 2150.000 4.500 10.250
v 2150.000 4.500 10.700
v 2150.000 5.600 9.300
v 2150.000 5.600 10.700
v 2150.217 1.200 9.875
v 2150.217 1.200 10.125
v 2150.217 4.500 9.875
v 2150.217 4.500 10.125
v 2150.495 4.500 9.505
v 2150.495 4.500 10.495
v 2150.495 5.600 9.505
v 2150.495 5.600 10.495
v 2150.647 -2.000 9.110
v 2150.647 -2.000 10.890
v 2150.647 1.200 9.110
v 2150.647 1.200 10.890
v 2150.700 4.500 10.000
v 2150.700 5.600 10.000
v 2151.046 -2.000 9.660
v 2151.046 -2.000 10.340
v 2151.046 1.200 9.660
v 2151.046 1.200 10.340
v 2998.954 -2.000 79.660
v 2998.954 -2.000 80.340
v 2998.954 1.200 79.660
v 2998.954 1.200 80.340
v 2999.300 4.500 80.000
v 2999.300 5.600 80.000
v 2999.353 -2.000 79.110
v 2999.353 -2.000 80.890
v 2999.353 1.200 79.110
v 2999.353 1.200 80.890
v 2999.505 4.500 79.505
v 2999.505 4.500 80.495
v 2999.505 5.600 79.505
v 2999.505 5.600 80.495
v 2999.783 1.200 79.875
v 2999.783 1.200 80.125
v 2999.783 4.500 79.875
v 2999.783 4.500 80.125
v 3000.000 -2.000 78.900
v 3000.000 -2.000 81.100
v 3000.000 1.200 78.900
v 3000.000 1.200 79.750
v 3000.000 1.200 80.250
v 3000.000 1.200 81.100
v 3000.000 4.500 79.300
v 3000.000 4.500 79.750
v 3000.000 4.500 80.250
v 3000.000 4.500 80.700
v 3000.000 5.600 79.300
v 3000.000 5.600 80.700
v 3000.217 1.200 79.875
v 3000.217 1.200 80.125
v 3000.217 4.500 79.875
v 3000.217 4.500 80.125
v 3000.495 4.500 79.505
v 3000.495 4.500 80.495
v 3000.495 5.600 79.505
v 3000.495 5.600 80.495
v 3000.647 -2.000 79.110
v 3000.647 -2.000 80.890
v 3000.647 1.200 79.110
v 3000.647 1.200 80.890
v 3000.700 4.500 80.000
v 3000.700 5.600 80.000
v 3001.046 -2.000 79.660
v 3001.046 -2.000 80.340
v 3001.046 1.200 79.660
v 3001.046 1.200 80.340
v 4198.954 -2.000 399.660
v 4198.954 -2.000 400.340
v 4198.954 1.200 399.660
v 4198.954 1.200 400.340
v 4199.300 4.500 400.000
v 4199.300 5.600 400.000
v 4199.353 -2.000 399.110
v 4199.353 -2.000 400.890
v 4199.353 1.200 399.110
v 4199.353 1.200 400.890
v 4199.505 4.500 399.505
v 4199.505 4.500 400.495
v 4199.505 5.600 399.505
v 4199.505 5.600 400.495
v 4199.783 1.200 399.875
v 4199.783 1.200 400.125
v 4199.783 4.500 399.875
v 4199.783 4.500 400.125
v 4200.000 -2.000 398.900
v 4200.000 -2.000 401.100
v 4200.000 1.200 398.900
v 4200.000 1.200 399.750
v 4200.000 1.200 400.250
v 4200.000 1.200 401.100
v 4200.000 4.500 399.300
v 4200.000 4.500 399.750
v 4200.000 4.500 400.250
v 4200.000 4.500 400.700
v 4200.000 5.600 399.300
v 4200.000 5.600 400.700
v 4200.217 1.200 399.875
v 4200.217 1.200 400.125
v 4200.217 4.500 399.875
v 4200.217 4.500 400.125
v 4200.495 4.500 399.505
v 4200.495 4.500 400.495
v 4200.495 5.600 399.505
v 4200.495 5.600 400.495
v 4200.647 -2.000 399.110
v 4200.647 -2.000 400.890
v 4200.647 1.200 399.110
v 4200.647 1.200 400.890
v 4200.700 4.500 400.000
v 4200.700 5.600 400.000
v 4201.046 -2.000 399.660
v 4201.046 -2.000 400.340
v 4201.046 1.200 399.660
v 4201.046 1.200 400.340
vt -4200.6466 -2.0000
vt -4200.6466 1.2000
vt -4200.4950 4.5000
vt -4200.4950 5.6000
vt -4200.2165 1.2000
vt -4200.2165 4.5000
vt -4200.0000 -2.0000
vt -4200.0000 1.2000
vt -4200.0000 4.5000
vt -4200.0000 5.6000
vt -4199.7835 1.2000
vt -4199.7835 4.5000
vt -4199.5050 4.5000
vt -4199.5050 5.6000
vt -4199.3534 -2.0000
vt -4199.3534 1.2000
vt -3000.6466 -2.0000
vt -3000.6466 1.2000
vt -3000.4950 4.5000
vt -3000.4950 5.6000
vt -3000.2165 1.2000
vt -3000.2165 4.5000
vt -3000.0000 -2.0000
vt -3000.0000 1.2000
vt -3000.0000 4.5000
vt -3000.0000 5.6000
vt -2999.7835 1.2000
vt -2999.7835 4.5000
vt -2999.5050 4.5000
vt -2999.5050 5.6000
vt -2999.3534 -2.0000
vt -2999.3534 1.2000
vt -2150.6466 -2.0000
vt -2150.6466 1.2000
vt -2150.4950 4.5000
vt -2150.4950 5.6000
vt -2150.2165 1.2000
vt -2150.2165 4.5000
vt -2150.0000 -2.0000
vt -2150.0000 1.2000
vt -2150.0000 4.5000
vt -2150.0000 5.6000
vt -2149.7835 1.2000
vt -2149.7835 4.5000
vt -2149.5050 4.5000
vt -2149.5050 5.6000
vt -2149.3534 -2.0000
vt -2149.3534 1.2000
vt -1300.6466 -2.0000
vt -1300.6466 1.2000
vt -1300.4950 4.5000
vt -1300.4950 5.6000
vt -1300.2165 1.2000
vt -1300.2165 4.5000
vt -1300.0000 -2.0000
vt -1300.0000 1.2000
vt -1300.0000 4.5000
vt -1300.0000 5.6000
vt -1299.7835 1.2000
vt -1299.7835 4.5000
vt -1299.5050 4.5000
vt -1299.5050 5.6000
vt -1299.3534 -2.0000
vt -1299.3534 1.2000
vt -401.1000 -4200.0000
vt -400.8899 -4200.6466
vt -400.8899 -4199.3534
vt -400.8899 -2.0000
vt -400.8899 1.2000
vt -400.7000 -4200.0000
vt -400.4950 -4200.4950
vt -400.4950 -4199.5050
vt -400.4950 4.5000
vt -400.4950 5.6000
vt -400.3399 -4201.0462
vt -400.3399 -4198.9538
vt -400.3399 -2.0000
vt -400.3399 1.2000
vt -400.2500 -4200.0000
vt -400.1250 -4200.2165
vt -400.1250 -4199.7835
vt -400.1250 1.2000
vt -400.1250 4.5000
vt -400.0000 -4200.7000
vt -400.0000 -4199.3000
vt -400.0000 4.5000
vt -400.0000 5.6000
vt -399.8750 -4200.2165
vt -399.8750 -4199.7835
vt -399.8750 1.2000
vt -399.8750 4.5000
vt -399.7500 -4200.0000
vt -399.6601 -4201.0462
vt -399.6601 -4198.9538
vt -399.6601 -2.0000
vt -399.6601 1.2000
vt -399.5050 -4200.4950
vt -399.5050 -4199.5050
vt -399.5050 4.5000
vt -399.5050 5.6000
vt -399.3000 -4200.0000
vt -399.1101 -4200.6466
vt -399.1101 -4199.3534
vt -399.1101 -2.0000
vt -399.1101 1.2000
vt -398.9000 -4200.0000
vt -81.1000 -3000.0000
vt -80.8899 -3000.6466
vt -80.8899 -2999.3534
vt -80.8899 -2.0000
vt -80.8899 1.2000
vt -80.7000 -3000.0000
vt -80.4950 -3000.4950
vt -80.4950 -2999.5050
vt -80.4950 4.5000
vt -80.4950 5.6000
vt -80.3399 -3001.0462
vt -80.3399 -2998.9538
vt -80.3399 -2.0000
vt -80.3399 1.2000
vt -80.2500 -3000.0000
vt -80.1250 -3000.2165
vt -80.1250 -2999.7835
vt -80.1250 1.2000
vt -80.1250 4.5000
vt -80.0000 -3000.7000
vt -80.0000 -2999.3000
vt -80.0000 4.5000
vt -80.0000 5.6000
vt -79.8750 -3000.2165
vt -79.8750 -2999.7835
vt -79.8750 1.2000
vt -79.8750 4.5000
vt -79.7500 -3000.0000
vt -79.6601 -3001.0462
vt -79.6601 -2998.9538
vt -79.6601 -2.0000
vt -79.6601 1.2000
vt -79.5050 -3000.4950
vt -79.5050 -2999.5050
vt -79.5050 4.5000
vt -79.5050 5.6000
vt -79.3000 -3000.0000
vt -79.1101 -3000.6466
vt -79.1101 -2999.3534
vt -79.1101 -2.0000
vt -79.1101 1.2000
vt -78.9000 -3000.0000
vt -11.1000 -2150.0000
vt -10.8899 -2150.6466
vt -10.8899 -2149.3534
vt -10.8899 -2.0000
vt -10.8899 1.2000
vt -10.7000 -2150.0000
vt -10.4950 -2150.4950
vt -10.4950 -2149.5050
vt -10.4950 4.5000
vt -10.4950 5.6000
vt -10.3399 -2151.0462
vt -10.3399 -2148.9538
vt -10.3399 -2.0000
vt -10.3399 1.2000
vt -10.2500 -2150.0000
vt -10.1250 -2150.2165
vt -10.1250 -2149.7835
vt -10.1250 1.2000
vt -10.1250 4.5000
vt -10.0000 -2150.7000
vt -10.0000 -2149.3000
vt -10.0000 4.5000
vt -10.0000 5.6000
vt -9.8750 -2150.2165
vt -9.8750 -2149.7835
vt -9.8750 1.2000
vt -9.8750 4.5000
vt -9.7500 -2150.0000
vt -9.6601 -2151.0462
vt -9.6601 -2148.9538
vt -9.6601 -2.0000
vt -9.6601 1.2000
vt -9.5050 -2150.4950
vt -9.5050 -2149.5050
vt -9.5050 4.5000
vt -9.5050 5.6000
vt -9.3000 -2150.0000
vt -9.1101 -2150.6466
vt -9.1101 -2149.3534
vt -9.1101 -2.0000
vt -9.1101 1.2000
vt -8.9000 -2150.0000
vt 58.9000 -1300.0000
vt 59.1101 -1300.6466
vt 59.1101 -1299.3534
vt 59.1101 -2.0000
vt 59.1101 1.2000
vt 59.3000 -1300.0000
vt 59.5050 -1300.4950
vt 59.5050 -1299.5050
vt 59.5050 4.5000
vt 59.5050 5.6000
vt 59.6601 -1301.0462
vt 59.6601 -1298.9538
vt 59.6601 -2.0000
vt 59.6601 1.2000
vt 59.7500 -1300.0000
vt 59.8750 -1300.2165
vt 59.8750 -1299.7835
vt 59.8750 1.2000
vt 59.8750 4.5000
vt 60.0000 -1300.7000
vt 60.0000 -1299.3000
vt 60.0000 4.5000
vt 60.0000 5.6000
vt 60.1250 -1300.2165
vt 60.1250 -1299.7835
vt 60.1250 1.2000
vt 60.1250 4.5000
vt 60.2500 -1300.0000
vt 60.3399 -1301.0462
vt 60.3399 -1298.9538
vt 60.3399 -2.0000
vt 60.3399 1.2000
vt 60.4950 -1300.4950
vt 60.4950 -1299.5050
vt 60.4950 4.5000
vt 60.4950 5.6000
vt 60.7000 -1300.0000
vt 60.8899 -1300.6466
vt 60.8899 -1299.3534
vt 60.8899 -2.0000
vt 60.8899 1.2000
vt 61.1000 -1300.0000
vn -1.000 0.000 -0.000
vn -0.924 -0.000 -0.383
vn -0.924 0.000 0.383
vn -0.809 -0.000 -0.588
vn -0.809 0.000 0.588
vn -0.500 -0.000 -0.866
vn -0.500 0.000 0.866
vn -0.383 0.000 -0.924
vn -0.383 0.000 0.924
vn -0.309 -0.000 -0.951
vn -0.309 0.000 0.951
vn -0.000 1.000 -0.000
vn 0.309 0.000 -0.951
vn 0.309 0.000 0.951
vn 0.383 0.000 -0.924
vn 0.383 0.000 0.924
vn 0.500 0.000 -0.866
vn 0.500 0.000 0.866
vn 0.809 0.000 -0.588
vn 0.809 0.000 0.588
vn 0.924 0.000 -0.383
vn 0.924 0.000 0.383
vn 1.000 0.000 -0.000
f 115/23/10 103/31/10 105/32/10
f 115/23/10 105/32/10 117/24/10
f 103/146/4 97/137/4 99/138/4
f 103/146/4 99/138/4 105/147/4
f 97/137/1 98/119/1 100/120/1
f 97/137/1 100/120/1 99/138/1
f 98/119/5 104/110/5 106/111/5
f 98/119/5 106/111/5 100/120/5
f 104/31/11 116/23/11 120/24/11
f 104/31/11 120/24/11 106/32/11
f 116/23/14 136/17/14 138/18/14
f 116/23/14 138/18/14 120/24/14
f 136/110/20 142/119/20 144/120/20
f 136/110/20 144/120/20 138/111/20
f 142/119/23 141/137/23 143/138/23
f 142/119/23 143/138/23 144/120/23
f 141/137/19 135/146/19 137/147/19
f 141/137/19 137/147/19 143/138/19
f 135/17/13 115/23/13 117/24/13
f 135/17/13 117/24/13 137/18/13
f 143/135/12 137/144/12 117/148/12
f 143/135/12 117/148/12 105/145/12
f 143/135/12 105/145/12 99/136/12
f 143/135/12 99/136/12 100/118/12
f 143/135/12 100/118/12 106/109/12
f 143/135/12 106/109/12 120/107/12
f 143/135/12 120/107/12 138/108/12
f 143/135/12 138/108/12 144/117/12
f 118/24/6 111/27/6 113/28/6
f 118/24/6 113/28/6 122/25/6
f 111/132/1 112/124/1 114/125/1
f 111/132/1 114/125/1 113/133/1
f 112/27/7 119/24/7 123/25/7
f 112/27/7 123/25/7 114/28/7
f 119/24/18 128/21/18 130/22/18
f 119/24/18 130/22/18 123/25/18
f 128/124/23 127/132/23 129/133/23
f 128/124/23 129/133/23 130/125/23
f 127/21/17 118/24/17 122/25/17
f 127/21/17 122/25/17 129/22/17
f 130/122/12 129/130/12 122/134/12
f 130/122/12 122/134/12 113/131/12
f 130/122/12 113/131/12 114/123/12
f 130/122/12 114/123/12 123/121/12
f 121/25/8 107/29/8 109/30/8
f 121/25/8 109/30/8 125/26/8
f 107/141/2 101/128/2 102/129/2
f 107/141/2 102/129/2 109/142/2
f 101/128/3 108/115/3 110/116/3
f 101/128/3 110/116/3 102/129/3
f 108/29/9 124/25/9 126/26/9
f 108/29/9 126/26/9 110/30/9
f 124/25/16 132/19/16 134/20/16
f 124/25/16 134/20/16 126/26/16
f 132/115/22 139/128/22 140/129/22
f 132/115/22 140/129/22 134/116/22
f 139/128/21 131/141/21 133/142/21
f 139/128/21 133/142/21 140/129/21
f 131/19/15 121/25/15 125/26/15
f 131/19/15 125/26/15 133/20/15
f 140/126/12 133/139/12 125/143/12
f 140/126/12 125/143/12 109/140/12
f 140/126/12 109/140/12 102/127/12
f 140/126/12 102/127/12 110/114/12
f 140/126/12 110/114/12 126/112/12
f 140/126/12 126/112/12 134/113/12
f 67/39/10 55/47/10 57/48/10
f 67/39/10 57/48/10 69/40/10
f 55/188/4 49/179/4 51/180/4
f 55/188/4 51/180/4 57/189/4
f 49/179/1 50/161/1 52/162/1
f 49/179/1 52/162/1 51/180/1
f 50/161/5 56/152/5 58/153/5
f 50/161/5 58/153/5 52/162/5
f 56/47/11 68/39/11 72/40/11
f 56/47/11 72/40/11 58/48/11
f 68/39/14 88/33/14 90/34/14
f 68/39/14 90/34/14 72/40/14
f 88/152/20 94/161/20 96/162/20
f 88/152/20 96/162/20 90/153/20
f 94/161/23 93/179/23 95/180/23
f 94/161/23 95/180/23 96/162/23
f 93/179/19 87/188/19 89/189/19
f 93/179/19 89/189/19 95/180/19
f 87/33/13 67/39/13 69/40/13
f 87/33/13 69/40/13 89/34/13
f 95/177/12 89/186/12 69/190/12
f 95/177/12 69/190/12 57/187/12
f 95/177/12 57/187/12 51/178/12
f 95/177/12 51/178/12 52/160/12
f 95/177/12 52/160/12 58/151/12
f 95/177/12 58/151/12 72/149/12
f 95/177/12 72/149/12 90/150/12
f 95/177/12 90/150/12 96/159/12
f 70/40/6 63/43/6 65/44/6
f 70/40/6 65/44/6 74/41/6
f 63/174/1 64/166/1 66/167/1
f 63/174/1 66/167/1 65/175/1
f 64/43/7 71/40/7 75/41/7
f 64/43/7 75/41/7 66/44/7
f 71/40/18 80/37/18 82/38/18
f 71/40/18 82/38/18 75/41/18
f 80/166/23 79/174/23 81/175/23
f 80/166/23 81/175/23 82/167/23
f 79/37/17 70/40/17 74/41/17
f 79/37/17 74/41/17 81/38/17
f 82/164/12 81/172/12 74/176/12
f 82/164/12 74/176/12 65/173/12
f 82/164/12 65/173/12 66/165/12
f 82/164/12 66/165/12 75/163/12
f 73/41/8 59/45/8 61/46/8
f 73/41/8 61/46/8 77/42/8
f 59/183/2 53/170/2 54/171/2
f 59/183/2 54/171/2 61/184/2
f 53/170/3 60/157/3 62/158/3
f 53/170/3 62/158/3 54/171/3
f 60/45/9 76/41/9 78/42/9
f 60/45/9 78/42/9 62/46/9
f 76/41/16 84/35/16 86/36/16
f 76/41/16 86/36/16 78/42/16
f 84/157/22 91/170/22 92/171/22
f 84/157/22 92/171/22 86/158/22
f 91/170/21 83/183/21 85/184/21
f 91/170/21 85/184/21 92/171/21
f 83/35/15 73/41/15 77/42/15
f 83/35/15 77/42/15 85/36/15
f 92/168/12 85/181/12 77/185/12
f 92/168/12 77/185/12 61/182/12
f 92/168/12 61/182/12 54/169/12
f 92/168/12 54/169/12 62/156/12
f 92/168/12 62/156/12 78/154/12
f 92/168/12 78/154/12 86/155/12
f 19/55/10 7/63/10 9/64/10
f 19/55/10 9/64/10 21/56/10
f 7/230/4 1/221/4 3/222/4
f 7/230/4 3/222/4 9/231/4
f 1/221/1 2/203/1 4/204/1
f 1/221/1 4/204/1 3/222/1
f 2/203/5 8/194/5 10/195/5
f 2/203/5 10/195/5 4/204/5
f 8/63/11 20/55/11 24/56/11
f 8/63/11 24/56/11 10/64/11
f 20/55/14 40/49/14 42/50/14
f 20/55/14 42/50/14 24/56/14
f 40/194/20 46/203/20 48/204/20
f 40/194/20 48/204/20 42/195/20
f 46/203/23 45/221/23 47/222/23
f 46/203/23 47/222/23 48/204/23
f 45/221/19 39/230/19 41/231/19
f 45/221/19 41/231/19 47/222/19
f 39/49/13 19/55/13 21/56/13
f 39/49/13 21/56/13 41/50/13
f 47/219/12 41/228/12 21/232/12
f 47/219/12 21/232/12 9/229/12
f 47/219/12 9/229/12 3/220/12
f 47/219/12 3/220/12 4/202/12
f 47/219/12 4/202/12 10/193/12
f 47/219/12 10/193/12 24/191/12
f 47/219/12 24/191/12 42/192/12
f 47/219/12 42/192/12 48/201/12
f 22/56/6 15/59/6 17/60/6
f 22/56/6 17/60/6 26/57/6
f 15/216/1 16/208/1 18/209/1
f 15/216/1 18/209/1 17/217/1
f 16/59/7 23/56/7 27/57/7
f 16/59/7 27/57/7 18/60/7
f 23/56/18 32/53/18 34/54/18
f 23/56/18 34/54/18 27/57/18
f 32/208/23 31/216/23 33/217/23
f 32/208/23 33/217/23 34/209/23
f 31/53/17 22/56/17 26/57/17
f 31/53/17 26/57/17 33/54/17
f 34/206/12 33/214/12 26/218/12
f 34/206/12 26/218/12 17/215/12
f 34/206/12 17/215/12 18/207/12
f 34/206/12 18/207/12 27/205/12
f 25/57/8 11/61/8 13/62/8
f 25/57/8 13/62/8 29/58/8
f 11/225/2 5/212/2 6/213/2
f 11/225/2 6/213/2 13/226/2
f 5/212/3 12/199/3 14/200/3
f 5/212/3 14/200/3 6/213/3
f 12/61/9 28/57/9 30/58/9
f 12/61/9 30/58/9 14/62/9
f 28/57/16 36/51/16 38/52/16
f 28/57/16 38/52/16 30/58/16
f 36/199/22 43/212/22 44/213/22
f 36/199/22 44/213/22 38/200/22
f 43/212/21 35/225/21 37/226/21
f 43/212/21 37/226/21 44/213/21
f 35/51/15 25/57/15 29/58/15
f 35/51/15 29/58/15 37/52/15
f 44/210/12 37/223/12 29/227/12
f 44/210/12 29/227/12 13/224/12
f 44/210/12 13/224/12 6/211/12
f 44/210/12 6/211/12 14/198/12
f 44/210/12 14/198/12 30/196/12
f 44/210/12 30/196/12 38/197/12
f 163/7/10 151/15/10 153/16/10
f 163/7/10 153/16/10 165/8/10
f 151/104/4 145/95/4 147/96/4
f 151/104/4 147/96/4 153/105/4
f 145/95/1 146/77/1 148/78/1
f 145/95/1 148/78/1 147/96/1
f 146/77/5 152/68/5 154/69/5
f 146/77/5 154/69/5 148/78/5
f 152/15/11 164/7/11 168/8/11
f 152/15/11 168/8/11 154/16/11
f 164/7/14 184/1/14 186/2/14
f 164/7/14 186/2/14 168/8/14
f 184/68/20 190/77/20 192/78/20
f 184/68/20 192/78/20 186/69/20
f 190/77/23 189/95/23 191/96/23
f 190/77/23 191/96/23 192/78/23
f 189/95/19 183/104/19 185/105/19
f 189/95/19 185/105/19 191/96/19
f 183/1/13 163/7/13 165/8/13
f 183/1/13 165/8/13 185/2/13
f 191/93/12 185/102/12 165/106/12
f 191/93/12 165/106/12 153/103/12
f 191/93/12 153/103/12 147/94/12
f 191/93/12 147/94/12 148/76/12
f 191/93/12 148/76/12 154/67/12
f 191/93/12 154/67/12 168/65/12
f 191/93/12 168/65/12 186/66/12
f 191/93/12 186/66/12 192/75/12
f 166/8/6 159/11/6 161/12/6
f 166/8/6 161/12/6 170/9/6
f 159/90/1 160/82/1 162/83/1
f 159/90/1 162/83/1 161/91/1
f 160/11/7 167/8/7 171/9/7
f 160/11/7 171/9/7 162/12/7
f 167/8/18 176/5/18 178/6/18
f 167/8/18 178/6/18 171/9/18
f 176/82/23 175/90/23 177/91/23
f 176/82/23 177/91/23 178/83/23
f 175/5/17 166/8/17 170/9/17
f 175/5/17 170/9/17 177/6/17
f 178/80/12 177/88/12 170/92/12
f 178/80/12 170/92/12 161/89/12
f 178/80/12 161/89/12 162/81/12
f 178/80/12 162/81/12 171/79/12
f 169/9/8 155/13/8 157/14/8
f 169/9/8 157/14/8 173/10/8
f 155/99/2 149/86/2 150/87/2
f 155/99/2 150/87/2 157/100/2
f 149/86/3 156/73/3 158/74/3
f 149/86/3 158/74/3 150/87/3
f 156/13/9 172/9/9 174/10/9
f 156/13/9 174/10/9 158/14/9
f 172/9/16 180/3/16 182/4/16
f 172/9/16 182/4/16 174/10/16
f 180/73/22 187/86/22 188/87/22
f 180/73/22 188/87/22 182/74/22
f 187/86/21 179/99/21 181/100/21
f 187/86/21 181/100/21 188/87/21
f 179/3/15 169/9/15 173/10/15
f 179/3/15 173/10/15 181/4/15
f 188/84/12 181/97/12 173/101/12
f 188/84/12 173/101/12 157/98/12
f 188/84/12 157/98/12 150/85/12
f 188/84/12 150/85/12 158/72/12
f 188/84/12 158/72/12 174/70/12
f 188/84/12 174/70/12 182/71/12
