# KeromanQuay - Lorient / Keroman 1943, generated by Tools/generate-lorient.py
# metres; Y up; OBJ (x, y, z) = (-north, up, -east); import roll 90 yaw 90
o KeromanQuay
v -786.608 4.620 429.939
v -689.504 4.870 -120.766
v -689.365 4.620 -121.554
v -650.713 4.870 230.507
v -650.064 4.870 231.434
v -649.925 4.620 230.646
v -598.618 4.870 -64.936
v -597.831 4.620 -64.797
v -597.692 4.870 -65.584
v -559.226 4.870 -57.990
v -558.438 4.620 -57.851
v -558.299 4.870 -58.639
v -552.280 4.870 -97.382
v -551.631 4.870 -96.455
v -551.492 4.620 -97.243
v -529.664 -7.000 239.666
v -526.886 -7.000 223.909
v -453.102 4.870 266.163
v -452.963 4.620 265.375
v -452.362 4.870 257.358
v -452.176 4.870 265.514
v -451.713 4.870 258.285
v -451.574 4.620 257.497
v -448.284 4.870 234.228
v -447.496 4.620 234.367
v -447.407 4.620 233.862
v -447.268 4.870 233.074
v -446.708 4.870 234.506
v -446.619 4.870 234.000
v -440.261 4.620 -37.013
v -440.122 4.870 -37.801
v -439.473 4.870 -36.874
v -433.454 4.870 -75.617
v -433.315 4.620 -76.405
v -432.528 4.870 -76.266
v -427.244 3.000 257.725
v -426.699 4.870 261.856
v -426.402 3.000 256.098
v -426.402 4.620 256.098
v -426.108 4.870 262.800
v -426.094 3.000 251.399
v -426.094 3.000 260.797
v -426.094 4.620 251.399
v -426.094 4.620 260.797
v -425.969 4.620 262.012
v -425.960 4.870 265.572
v -425.933 4.870 265.673
v -425.914 4.620 261.700
v -425.181 4.870 262.151
v -425.175 3.000 246.781
v -425.175 3.000 265.416
v -425.175 4.620 246.781
v -425.175 4.620 265.416
v -425.127 4.870 261.839
v -424.466 3.000 241.968
v -424.419 4.870 270.132
v -424.379 4.870 270.229
v -423.662 3.000 242.321
v -423.662 3.000 269.875
v -423.662 4.620 242.321
v -423.662 4.620 269.875
v -422.567 4.870 238.293
v -422.296 4.870 237.744
v -422.296 4.870 274.452
v -422.244 4.870 237.654
v -422.244 4.870 274.543
v -421.849 4.620 238.646
v -421.802 4.620 238.376
v -421.663 4.870 237.589
v -421.579 3.000 238.098
v -421.579 3.000 274.098
v -421.579 4.620 238.098
v -421.579 4.620 274.098
v -421.062 4.870 238.785
v -421.014 4.870 238.515
v -419.628 4.870 233.738
v -419.628 4.870 278.458
v -419.564 4.870 233.655
v -419.564 4.870 278.541
v -418.963 3.000 234.183
v -418.963 3.000 278.014
v -418.963 4.620 234.183
v -418.963 4.620 278.014
v -416.459 4.870 230.115
v -416.459 4.870 282.081
v -416.385 4.870 230.041
v -416.385 4.870 282.155
v -415.858 3.000 230.642
v -415.858 3.000 281.554
v -415.858 4.620 230.642
v -415.858 4.620 281.554
v -412.845 4.870 226.936
v -412.845 4.870 285.260
v -412.762 4.870 226.872
v -412.762 4.870 285.324
v -412.317 3.000 227.537
v -412.317 3.000 284.659
v -412.317 4.620 227.537
v -412.317 4.620 284.659
v -408.847 4.870 224.256
v -408.847 4.870 287.940
v -408.756 4.870 224.204
v -408.756 4.870 287.993
v -408.402 3.000 224.921
v -408.402 3.000 287.275
v -408.402 4.620 224.921
v -408.402 4.620 287.275
v -404.532 4.870 222.121
v -404.532 4.870 290.075
v -404.436 4.870 222.081
v -404.436 4.870 290.115
v -404.179 3.000 222.838
v -404.179 3.000 289.358
v -404.179 4.620 222.838
v -404.179 4.620 289.358
v -400.869 4.620 -30.067
v -400.730 4.870 -30.855
v -400.081 4.870 -29.928
v -399.977 4.870 220.567
v -399.977 4.870 291.629
v -399.876 4.870 220.540
v -399.876 4.870 291.656
v -399.720 3.000 221.325
v -399.720 3.000 290.871
v -399.720 4.620 221.325
v -399.720 4.620 290.871
v -395.257 4.870 219.621
v -395.257 4.870 292.575
v -395.153 4.870 219.608
v -395.153 4.870 292.588
v -395.101 3.000 220.406
v -395.101 3.000 291.790
v -395.101 4.620 220.406
v -395.101 4.620 291.790
v -390.454 4.870 219.300
v -390.454 4.870 292.896
v -390.402 3.000 220.098
v -390.402 3.000 292.098
v -390.402 4.620 220.098
v -390.402 4.620 292.098
v -390.350 4.870 219.300
v -390.350 4.870 292.896
v -385.703 3.000 220.406
v -385.703 3.000 291.790
v -385.703 4.620 220.406
v -385.703 4.620 291.790
v -385.651 4.870 219.608
v -385.651 4.870 292.588
v -385.547 4.870 219.621
v -385.547 4.870 292.575
v -381.085 3.000 221.325
v -381.085 3.000 290.871
v -381.085 4.620 221.325
v -381.085 4.620 290.871
v -380.928 4.870 220.540
v -380.928 4.870 291.656
v -380.827 4.870 220.567
v -380.827 4.870 291.629
v -376.625 3.000 222.838
v -376.625 3.000 289.358
v -376.625 4.620 222.838
v -376.625 4.620 289.358
v -376.368 4.870 222.081
v -376.368 4.870 290.115
v -376.272 4.870 222.121
v -376.272 4.870 290.075
v -372.402 3.000 224.921
v -372.402 3.000 287.275
v -372.402 4.620 224.921
v -372.402 4.620 287.275
v -372.048 4.870 224.204
v -372.048 4.870 287.993
v -371.958 4.870 224.256
v -371.958 4.870 287.940
v -368.487 3.000 227.537
v -368.487 3.000 284.659
v -368.487 4.620 227.537
v -368.487 4.620 284.659
v -368.042 4.870 226.872
v -368.042 4.870 285.324
v -367.959 4.870 226.936
v -367.959 4.870 285.260
v -364.946 3.000 230.642
v -364.946 3.000 281.554
v -364.946 4.620 230.642
v -364.946 4.620 281.554
v -364.419 4.870 230.041
v -364.419 4.870 282.155
v -364.345 4.870 230.115
v -364.345 4.870 282.081
v -361.841 3.000 234.183
v -361.841 3.000 278.014
v -361.841 4.620 234.183
v -361.841 4.620 278.014
v -361.240 4.870 233.655
v -361.240 4.870 278.541
v -361.176 4.870 233.738
v -361.176 4.870 278.458
v -359.225 3.000 238.098
v -359.225 3.000 274.098
v -359.225 4.620 238.098
v -359.225 4.620 274.098
v -358.560 4.870 237.654
v -358.560 4.870 274.543
v -358.508 4.870 237.744
v -358.508 4.870 274.452
v -357.142 3.000 242.321
v -357.142 3.000 269.875
v -357.142 4.620 242.321
v -357.142 4.620 269.875
v -356.425 4.870 241.968
v -356.425 4.870 270.229
v -356.385 4.870 242.064
v -356.385 4.870 270.132
v -355.629 3.000 246.781
v -355.629 3.000 265.416
v -355.629 4.620 246.781
v -355.629 4.620 265.416
v -354.871 4.870 246.523
v -354.871 4.870 265.673
v -354.844 4.870 246.625
v -354.844 4.870 265.572
v -354.710 3.000 251.399
v -354.710 3.000 260.797
v -354.710 4.620 251.399
v -354.710 4.620 260.797
v -354.402 3.000 256.098
v -354.402 4.620 256.098
v -353.925 4.870 251.243
v -353.925 4.870 260.953
v -353.912 4.870 251.347
v -353.912 4.870 260.849
v -353.604 4.870 256.046
v -353.604 4.870 256.150
v -326.904 4.870 150.520
v -326.255 4.870 151.447
v -326.116 3.000 150.659
v -326.116 4.620 150.659
v -314.054 4.870 77.645
v -313.266 3.000 77.784
v -313.266 4.620 77.784
v -313.127 4.870 76.996
v -158.454 4.870 105.081
v -157.667 4.620 105.220
v -157.528 4.870 104.432
v -153.727 1.000 105.915
v -153.727 3.000 105.915
v -153.727 4.620 105.915
v -151.682 4.870 66.674
v -150.894 4.620 66.813
v -150.814 4.870 61.750
v -150.755 4.870 66.025
v -150.165 4.870 62.676
v -150.026 4.620 61.888
v -139.142 4.870 184.440
v -139.003 3.000 183.653
v -139.003 4.620 183.653
v -138.215 4.870 183.791
v -137.970 1.000 108.693
v -137.970 3.000 108.693
v -137.970 4.620 108.693
v -135.707 4.870 -23.929
v -135.058 4.870 -23.002
v -134.919 4.620 -23.790
v -134.031 4.620 109.388
v -133.892 4.870 108.600
v -133.243 4.870 109.526
v -127.259 4.620 70.980
v -127.120 4.870 70.192
v -126.530 4.870 66.844
v -126.471 4.870 71.119
v -126.391 4.620 66.056
v -126.153 3.000 110.777
v -126.153 4.620 110.777
v -126.014 4.870 109.989
v -125.603 4.870 66.195
v -125.365 4.870 110.916
v -118.824 -12.650 -92.032
v -118.824 -10.650 -92.032
v -111.422 4.870 -18.834
v -111.283 4.620 -19.622
v -110.495 4.870 -19.483
v -106.086 4.870 113.300
v -105.437 4.870 114.226
v -105.298 4.620 113.439
v -103.067 -12.650 -89.253
v -103.067 -10.650 -89.253
v -100.423 4.500 114.298
v -97.223 4.500 114.862
v -84.420 4.500 117.120
v -83.512 4.870 -14.725
v -82.863 4.870 -13.799
v -82.724 4.620 -14.586
v -81.220 4.500 117.684
v -78.023 4.500 -12.742
v -77.674 4.500 118.309
v -74.822 4.500 -12.178
v -74.474 4.500 118.874
v -62.020 4.500 -9.920
v -61.671 4.500 121.131
v -58.819 4.500 -9.356
v -58.471 4.500 121.696
v -55.274 4.500 -8.731
v -54.925 4.500 122.321
v -52.073 4.500 -8.166
v -51.725 4.500 122.885
v -39.271 4.500 -5.909
v -38.922 4.500 125.142
v -36.070 4.500 -5.345
v -35.721 4.500 125.707
v -32.525 4.500 -4.720
v -32.176 4.500 126.332
v -29.324 4.500 -4.155
v -28.976 4.500 126.896
v -16.521 4.500 -1.898
v -16.173 4.500 129.154
v -13.321 4.500 -1.333
v -12.972 4.500 129.718
v -9.776 4.500 -0.708
v -9.427 4.500 130.343
v -6.575 4.500 -0.144
v -6.226 4.500 130.908
v 6.228 4.500 2.114
v 6.576 4.500 133.165
v 9.428 4.500 2.678
v 9.777 4.500 133.729
v 12.974 4.500 3.303
v 13.322 4.500 134.354
v 16.174 4.500 3.867
v 16.523 4.500 134.919
v 28.977 4.500 6.125
v 29.325 4.500 137.176
v 32.177 4.500 6.689
v 32.526 4.500 137.741
v 35.723 4.500 7.314
v 36.071 4.500 138.366
v 38.923 4.500 7.879
v 39.272 4.500 138.930
v 51.726 4.500 10.136
v 52.074 4.500 141.188
v 54.926 4.500 10.700
v 55.275 4.500 141.752
v 58.472 4.500 11.326
v 59.558 4.870 579.054
v 60.011 4.870 143.399
v 60.150 4.620 142.611
v 60.326 4.620 579.276
v 60.937 4.870 142.750
v 61.672 4.500 11.890
v 74.475 4.500 14.147
v 77.675 4.500 14.712
v 82.585 4.870 15.374
v 82.724 4.620 14.586
v 83.512 4.870 14.725
v 98.618 4.870 443.887
v 98.641 4.870 443.786
v 99.409 4.620 444.008
v 107.596 4.870 19.423
v 108.190 4.870 19.889
v 108.329 4.620 19.101
v 131.888 4.870 226.456
v 131.897 4.870 226.361
v 132.688 4.620 226.482
v 136.503 4.870 85.110
v 136.570 4.870 85.457
v 137.302 4.620 85.136
v 2058.540 8.000 -305.055
v 2075.295 8.000 -344.040
v 2096.854 8.000 -341.010
v 2097.491 8.000 -582.206
v 2100.633 8.000 -310.415
v 2102.852 8.000 -540.113
v 2103.663 8.000 -331.974
v 2124.411 8.000 -537.083
v 2133.446 8.000 -543.892
v 2136.476 8.000 -565.451
v 2213.524 8.000 -294.549
v 2216.554 8.000 -316.108
v 2225.589 8.000 -322.917
v 2246.337 8.000 -528.026
v 2247.148 8.000 -319.887
v 2249.367 8.000 -549.585
v 2252.509 8.000 -277.794
v 2253.146 8.000 -518.990
v 2274.705 8.000 -515.960
v 2291.460 8.000 -554.945
vt -193.0920 -20.1088
vt -193.0180 -19.8526
vt -148.0026 -33.1364
vt -147.9622 -32.8728
vt -147.9285 -32.8802
vt -143.3129 262.2028
vt -97.6321 130.1166
vt -97.6321 130.1515
vt -97.5295 128.5503
vt -97.5295 131.7178
vt -97.5249 128.5157
vt -97.5249 131.7524
vt -97.3660 130.1340
vt -97.2634 128.5677
vt -97.2634 131.7003
vt -97.2187 126.9762
vt -97.2187 133.2919
vt -97.2097 126.9425
vt -97.2097 133.3256
vt -96.9571 127.0282
vt -96.9571 133.2398
vt -96.7051 125.4561
vt -96.7051 134.8119
vt -96.6918 125.4239
vt -96.6918 134.8442
vt -96.4526 125.5418
vt -96.4526 134.7262
vt -95.9975 124.0161
vt -95.9975 136.2520
vt -95.9801 123.9859
vt -95.9801 136.2822
vt -95.7583 124.1340
vt -95.7583 136.1340
vt -95.1080 122.6807
vt -95.1080 137.5873
vt -95.0868 122.6531
vt -95.0868 137.6150
vt -94.8863 122.8289
vt -94.8863 137.4392
vt -94.0518 121.4729
vt -94.0518 138.7951
vt -94.0271 121.4482
vt -94.0271 138.8198
vt -93.8513 1.0000
vt -93.8513 1.5400
vt -93.8513 121.6487
vt -93.8513 138.6193
vt -92.8470 120.4133
vt -92.8470 139.8547
vt -92.8193 120.3921
vt -92.8193 139.8760
vt -92.6712 1.0000
vt -92.6712 1.5400
vt -92.6712 120.6138
vt -92.6712 139.6543
vt -91.5142 119.5200
vt -91.5142 140.7480
vt -91.4840 119.5025
vt -91.4840 140.7655
vt -91.3660 1.0000
vt -91.3660 1.5400
vt -91.3660 119.7417
vt -91.3660 140.5263
vt -90.0762 118.8083
vt -90.0762 141.4597
vt -90.0440 118.7949
vt -90.0440 141.4731
vt -89.9582 1.0000
vt -89.9582 1.5400
vt -89.9582 119.0475
vt -89.9582 141.2206
vt -88.7211 151.0341
vt -88.5576 118.2904
vt -88.5576 141.9776
vt -88.5239 118.2814
vt -88.5239 141.9867
vt -88.5048 150.7252
vt -88.4719 1.0000
vt -88.4719 1.5400
vt -88.4719 118.5429
vt -88.4719 141.7251
vt -88.4585 150.9878
vt -87.5999 142.0361
vt -87.3836 141.7271
vt -87.3373 141.9898
vt -87.2855 142.2330
vt -87.2798 141.7088
vt -87.2335 141.9715
vt -86.9844 117.9751
vt -86.9498 117.9706
vt -86.9323 1.0000
vt -86.9323 1.5400
vt -86.9323 118.2367
vt -86.9323 142.0314
vt -86.0949 150.5711
vt -85.9084 142.4148
vt -85.8323 150.5248
vt -85.7860 150.7874
vt -85.3835 117.8679
vt -85.3660 1.0000
vt -85.3660 1.5400
vt -85.3660 118.1340
vt -85.3660 142.1340
vt -85.3486 117.8679
vt -83.7997 1.0000
vt -83.7997 1.5400
vt -83.7997 118.2367
vt -83.7997 142.0314
vt -83.7823 117.9706
vt -83.7477 117.9751
vt -82.2602 1.0000
vt -82.2602 1.5400
vt -82.2602 118.5429
vt -82.2602 141.7251
vt -82.2082 118.2814
vt -82.1745 118.2904
vt -80.7738 1.0000
vt -80.7738 1.5400
vt -80.7738 119.0475
vt -80.7738 141.2206
vt -80.6881 118.7949
vt -80.6561 141.4886
vt -80.6559 118.8083
vt -79.8886 176.5548
vt -79.5951 140.3538
vt -79.5488 140.6164
vt -79.5051 140.3380
vt -79.4588 140.6006
vt -79.4308 140.8556
vt -79.3660 1.0000
vt -79.3660 1.5400
vt -79.3660 119.7417
vt -79.3660 140.5263
vt -79.2481 119.5025
vt -79.2481 140.7655
vt -79.2179 119.5200
vt -79.2179 140.7480
vt -79.1962 140.5543
vt -78.1686 148.9027
vt -78.1223 149.1653
vt -78.0759 149.4279
vt -78.0609 1.0000
vt -78.0609 1.5400
vt -78.0609 120.6138
vt -78.0609 139.6543
vt -78.0001 148.8730
vt -77.9538 149.1356
vt -77.9127 120.3921
vt -77.9127 139.8760
vt -77.8851 120.4133
vt -77.8851 139.8547
vt -77.6912 149.0893
vt -77.1445 216.6880
vt -76.8819 216.6417
vt -76.8808 1.0000
vt -76.8808 1.5400
vt -76.8808 121.6487
vt -76.8808 138.6193
vt -76.8356 216.9043
vt -76.7049 121.4482
vt -76.7049 138.8198
vt -76.6803 121.4729
vt -76.6803 138.7951
vt -75.8458 122.8289
vt -75.8458 137.4392
vt -75.6453 122.6531
vt -75.6453 137.6150
vt -75.6241 122.6807
vt -75.6241 137.5873
vt -75.4939 -44.2292
vt -75.4852 -43.9627
vt -75.4536 -43.9656
vt -74.9737 124.1340
vt -74.9737 136.1340
vt -74.7520 123.9859
vt -74.7520 136.2822
vt -74.7346 124.0161
vt -74.7346 136.2520
vt -74.6363 175.6287
vt -74.2795 125.5418
vt -74.2795 134.7262
vt -74.0403 125.4239
vt -74.0403 134.8442
vt -74.0270 125.4561
vt -74.0270 134.8119
vt -73.7749 127.0282
vt -73.7749 133.2398
vt -73.5224 126.9425
vt -73.5224 133.3256
vt -73.5134 126.9762
vt -73.5134 133.2919
vt -73.4687 128.5677
vt -73.4687 131.7003
vt -73.3660 130.1340
vt -73.2072 128.5157
vt -73.2072 131.7524
vt -73.2026 128.5503
vt -73.2026 131.7178
vt -73.0999 130.1166
vt -73.0999 130.1515
vt -61.4801 46.3805
vt -61.2638 46.0716
vt -61.2175 1.0000
vt -61.2175 1.5400
vt -61.2175 46.3342
vt -50.4824 108.7517
vt -50.2198 1.0000
vt -50.2198 1.5400
vt -50.2198 108.7054
vt -50.1735 108.9680
vt -47.7998 -20.0036
vt -47.5835 -20.3125
vt -47.5372 -20.0499
vt -47.2506 -18.4249
vt -47.0625 -17.3581
vt -46.3100 -13.0906
vt -46.1219 -12.0237
vt -45.9135 -10.8419
vt -45.7254 -9.7750
vt -44.9729 -5.5075
vt -44.7848 -4.4407
vt -44.5765 -3.2589
vt -44.3883 -2.1920
vt -43.6359 2.0755
vt -43.4477 3.1424
vt -43.2394 4.3241
vt -43.0512 5.3910
vt -42.2988 9.6585
vt -42.1106 10.7254
vt -41.9023 11.9071
vt -41.7141 12.9740
vt -40.9617 17.2415
vt -40.7736 18.3084
vt -40.5652 19.4902
vt -40.3771 20.5570
vt -39.6246 24.8245
vt -39.4365 25.8914
vt -39.2281 27.0732
vt -39.0400 28.1401
vt -38.2875 32.4076
vt -38.0994 33.4744
vt -38.0755 35.1457
vt -37.8129 35.0994
vt -37.7665 35.3620
vt -36.9719 41.7883
vt -36.9256 1.0000
vt -36.9256 1.5400
vt -36.9256 42.0509
vt -36.6630 42.0046
vt -36.5088 44.4144
vt -36.4625 44.6771
vt -36.2310 0.3333
vt -36.2310 1.0000
vt -36.2310 45.9901
vt -36.1999 44.6308
vt -35.3049 0.3333
vt -35.3049 1.0000
vt -35.3049 51.2424
vt -35.0733 52.5555
vt -35.0270 52.8181
vt -34.8107 52.5092
vt -28.4857 -45.5232
vt -28.3786 -45.7674
vt -28.3699 -45.5009
vt -25.9279 1.0000
vt -25.9279 1.5400
vt -25.9279 104.4221
vt -25.8816 104.6847
vt -25.6653 104.3758
vt -23.7063 42.1570
vt -23.6600 42.4196
vt -23.3974 42.3733
vt -22.2813 42.1765
vt -22.2708 50.2981
vt -22.2245 50.5607
vt -22.0650 41.8676
vt -22.0187 42.1302
vt -22.0082 50.2518
vt -20.8921 50.0550
vt -20.6295 50.0087
vt -20.5832 50.2713
vt -6.6297 -36.0633
vt -6.4742 -35.8654
vt -6.3671 -36.1096
vt -5.1248 -27.5283
vt -4.9085 -27.8372
vt -4.9039 -25.8918
vt -4.8621 -27.5746
vt -4.7158 -24.8249
vt -3.9633 -20.5574
vt -3.7752 -19.4906
vt -3.5668 -18.3088
vt -3.3787 -17.2419
vt -2.6262 -12.9744
vt -2.4381 -11.9075
vt -2.2297 -10.7258
vt -2.0416 -9.6589
vt -1.2891 -5.3914
vt -1.1010 -4.3245
vt -0.8926 -3.1427
vt -0.7045 -2.0759
vt 0.0480 2.1916
vt 0.2361 3.2585
vt 0.4445 4.4403
vt 0.6326 5.5072
vt 1.3851 9.7747
vt 1.5732 10.8415
vt 1.7816 12.0233
vt 1.9697 13.0902
vt 2.7222 17.3577
vt 2.9103 18.4245
vt 3.1186 19.6063
vt 3.3068 20.6732
vt 4.0592 24.9407
vt 4.2474 26.0076
vt 4.5995 27.6209
vt 4.8621 27.5746
vt 4.9085 27.8372
vt 6.2781 37.1407
vt 6.4944 36.8318
vt 6.5407 37.0944
vt 7.6673 45.0192
vt 7.9299 44.9729
vt 7.9762 45.2355
vt 9.9760 133.3604
vt 10.0223 133.6230
vt 10.2849 133.5767
vt 12.2913 146.4912
vt 12.3376 146.7538
vt 12.6002 146.7075
vt 19.2836 186.1461
vt 19.3299 186.4087
vt 19.5462 186.0998
vt 21.5989 199.2769
vt 21.6452 199.5395
vt 21.8615 199.2306
vt 25.2058 144.4848
vt 25.4221 144.1759
vt 25.4684 144.4385
vt 29.7511 -4.2167
vt 29.7511 -3.5500
vt 29.7511 34.3557
vt 30.6773 -4.2167
vt 30.6773 -3.5500
vt 30.6773 39.6080
vt 32.1517 183.8771
vt 32.4143 183.8308
vt 32.4606 184.0934
vt 40.2553 229.8348
vt 40.5179 229.7885
vt 42.0509 1.0000
vt 42.0509 1.5400
vt 45.9901 1.0000
vt 45.9901 1.5400
vt 46.3342 1.0000
vt 46.3342 1.5400
vt 51.2424 1.0000
vt 51.2424 1.5400
vt 92.5980 -750.8363
vt 98.1831 -737.8413
vt 101.6849 -686.1800
vt 103.4717 -700.2111
vt 104.4221 1.0000
vt 104.4221 1.5400
vt 105.3695 -738.8513
vt 106.6291 -749.0495
vt 107.6391 -741.8631
vt 108.7054 1.0000
vt 108.7054 1.5400
vt 110.6581 -701.2211
vt 113.6699 -698.9515
vt 114.6799 -691.7651
vt 121.6487 1.0000
vt 121.6487 1.5400
vt 122.8289 1.0000
vt 122.8289 1.5400
vt 124.1340 1.0000
vt 124.1340 1.5400
vt 125.5418 1.0000
vt 125.5418 1.5400
vt 127.0282 1.0000
vt 127.0282 1.5400
vt 128.5677 1.0000
vt 128.5677 1.5400
vt 130.1340 1.0000
vt 130.1340 1.5400
vt 131.7003 1.0000
vt 131.7003 1.5400
vt 133.2398 1.0000
vt 133.2398 1.5400
vt 134.7262 1.0000
vt 134.7262 1.5400
vt 136.1340 1.0000
vt 136.1340 1.5400
vt 137.4392 1.0000
vt 137.4392 1.5400
vt 138.6193 1.0000
vt 138.6193 1.5400
vt 171.9868 -758.2349
vt 172.9968 -751.0485
vt 176.0086 -748.7789
vt 179.0276 -708.1369
vt 180.0376 -700.9505
vt 181.2972 -711.1487
vt 183.1950 -749.7889
vt 184.9818 -763.8200
vt 188.4836 -712.1587
vt 194.0686 -699.1637
vn -0.998 0.000 -0.065
vn -0.998 0.000 0.065
vn -0.985 -0.000 -0.174
vn -0.981 0.000 -0.195
vn -0.981 0.000 0.195
vn -0.947 -0.000 -0.321
vn -0.947 0.000 0.321
vn -0.897 0.000 -0.442
vn -0.897 0.000 0.442
vn -0.831 -0.000 -0.556
vn -0.831 0.000 0.556
vn -0.752 0.000 -0.659
vn -0.752 0.000 0.659
vn -0.659 -0.000 -0.752
vn -0.659 0.000 0.752
vn -0.556 -0.000 -0.831
vn -0.556 0.000 0.831
vn -0.442 -0.000 -0.897
vn -0.442 0.000 0.897
vn -0.321 0.000 -0.947
vn -0.321 0.000 0.947
vn -0.298 0.954 -0.020
vn -0.298 0.954 0.020
vn -0.294 0.954 -0.052
vn -0.293 0.954 -0.058
vn -0.293 0.954 0.058
vn -0.282 0.954 -0.096
vn -0.282 0.954 0.096
vn -0.268 0.954 -0.132
vn -0.268 0.954 0.132
vn -0.248 0.954 -0.166
vn -0.248 0.954 0.166
vn -0.224 0.954 -0.197
vn -0.224 0.954 0.197
vn -0.197 0.954 -0.224
vn -0.197 0.954 0.224
vn -0.195 0.000 -0.981
vn -0.195 0.000 0.981
vn -0.174 0.000 0.985
vn -0.166 0.954 -0.248
vn -0.166 0.954 0.248
vn -0.132 0.954 -0.268
vn -0.132 0.954 0.268
vn -0.096 0.954 -0.282
vn -0.096 0.954 0.282
vn -0.094 0.995 -0.017
vn -0.065 0.000 -0.998
vn -0.065 0.000 0.998
vn -0.058 0.954 -0.293
vn -0.058 0.954 0.293
vn -0.052 0.954 0.294
vn -0.020 0.954 -0.298
vn -0.020 0.954 0.298
vn -0.000 1.000 -0.000
vn 0.012 0.998 -0.067
vn 0.020 0.954 -0.298
vn 0.020 0.954 0.298
vn 0.052 0.954 -0.294
vn 0.058 0.954 -0.293
vn 0.058 0.954 0.293
vn 0.065 0.000 -0.998
vn 0.065 0.000 0.998
vn 0.096 0.954 -0.282
vn 0.096 0.954 0.282
vn 0.132 0.954 -0.268
vn 0.132 0.954 0.268
vn 0.166 0.954 -0.248
vn 0.166 0.954 0.248
vn 0.174 0.000 -0.985
vn 0.195 0.000 -0.981
vn 0.195 0.000 0.981
vn 0.197 0.954 -0.224
vn 0.197 0.954 0.224
vn 0.224 0.954 -0.197
vn 0.224 0.954 0.197
vn 0.248 0.954 -0.166
vn 0.248 0.954 0.166
vn 0.268 0.954 -0.132
vn 0.268 0.954 0.132
vn 0.273 0.954 -0.120
vn 0.282 0.954 -0.096
vn 0.287 0.954 0.083
vn 0.293 0.954 -0.058
vn 0.294 0.954 0.052
vn 0.295 0.954 0.045
vn 0.298 0.954 0.010
vn 0.321 0.000 -0.947
vn 0.321 0.000 0.947
vn 0.442 0.000 -0.897
vn 0.442 0.000 0.897
vn 0.556 0.000 -0.831
vn 0.556 0.000 0.831
vn 0.659 0.000 -0.752
vn 0.659 0.000 0.752
vn 0.752 0.000 -0.659
vn 0.752 0.000 0.659
vn 0.831 0.000 -0.556
vn 0.831 0.000 0.556
vn 0.897 0.000 -0.442
vn 0.897 0.000 0.442
vn 0.947 0.000 -0.321
vn 0.947 0.000 0.321
vn 0.981 0.000 -0.195
vn 0.981 0.000 0.195
vn 0.985 0.000 0.174
vn 0.998 0.000 -0.065
vn 0.998 0.000 0.065
f 347/1/54 257/205/54 238/209/54
f 241/267/54 244/259/54 250/274/54
f 268/271/54 265/251/54 274/248/54
f 274/248/54 257/205/54 347/1/54
f 274/248/54 347/1/54 357/3/54
f 274/248/54 357/3/54 363/170/54
f 363/170/54 366/263/54 360/284/54
f 363/170/54 360/284/54 353/288/54
f 363/170/54 353/288/54 346/213/54
f 363/170/54 346/213/54 285/243/54
f 285/243/54 293/317/54 281/321/54
f 285/243/54 281/321/54 272/277/54
f 254/280/54 264/323/54 34/339/54
f 34/339/54 30/329/54 116/326/54
f 116/326/54 26/147/54 68/128/54
f 68/128/54 67/126/54 72/133/54
f 68/128/54 72/133/54 82/145/54
f 53/81/54 48/88/54 45/85/54
f 53/81/54 45/85/54 23/97/54
f 8/334/54 11/331/54 15/347/54
f 8/334/54 15/347/54 3/350/54
f 8/334/54 3/350/54 1/6/54
f 274/248/54 363/170/54 285/243/54
f 274/248/54 285/243/54 272/277/54
f 254/280/54 34/339/54 116/326/54
f 116/326/54 68/128/54 82/145/54
f 116/326/54 82/145/54 90/158/54
f 116/326/54 90/158/54 98/165/54
f 116/326/54 98/165/54 106/174/54
f 116/326/54 106/174/54 114/181/54
f 116/326/54 114/181/54 125/187/54
f 116/326/54 125/187/54 133/193/54
f 116/326/54 133/193/54 139/194/54
f 116/326/54 139/194/54 145/192/54
f 116/326/54 145/192/54 153/186/54
f 116/326/54 153/186/54 161/180/54
f 116/326/54 161/180/54 169/173/54
f 116/326/54 169/173/54 177/164/54
f 116/326/54 177/164/54 185/157/54
f 116/326/54 185/157/54 193/144/54
f 116/326/54 193/144/54 201/132/54
f 116/326/54 201/132/54 209/119/54
f 116/326/54 209/119/54 217/113/54
f 116/326/54 217/113/54 225/107/54
f 61/71/54 53/81/54 23/97/54
f 61/71/54 23/97/54 19/82/54
f 6/154/54 8/334/54 1/6/54
f 6/154/54 1/6/54 347/1/54
f 268/271/54 274/248/54 272/277/54
f 268/271/54 272/277/54 254/280/54
f 268/271/54 254/280/54 116/326/54
f 73/63/54 61/71/54 19/82/54
f 73/63/54 19/82/54 6/154/54
f 250/274/54 268/271/54 116/326/54
f 83/55/54 73/63/54 6/154/54
f 241/267/54 250/274/54 116/326/54
f 241/267/54 116/326/54 225/107/54
f 241/267/54 225/107/54 228/102/54
f 241/267/54 228/102/54 226/93/54
f 241/267/54 226/93/54 218/80/54
f 91/47/54 83/55/54 6/154/54
f 238/209/54 241/267/54 218/80/54
f 99/39/54 91/47/54 6/154/54
f 347/1/54 238/209/54 218/80/54
f 347/1/54 218/80/54 210/70/54
f 347/1/54 210/70/54 202/62/54
f 347/1/54 202/62/54 194/54/54
f 347/1/54 194/54/54 186/46/54
f 347/1/54 186/46/54 178/38/54
f 347/1/54 178/38/54 170/32/54
f 347/1/54 170/32/54 162/26/54
f 347/1/54 162/26/54 154/20/54
f 347/1/54 154/20/54 146/14/54
f 347/1/54 146/14/54 140/13/54
f 347/1/54 140/13/54 134/15/54
f 347/1/54 134/15/54 126/21/54
f 347/1/54 126/21/54 115/27/54
f 347/1/54 115/27/54 107/33/54
f 107/33/54 99/39/54 6/154/54
f 107/33/54 6/154/54 347/1/54
f 353/288/24 346/213/24 348/212/24
f 353/288/24 348/212/24 354/286/24
f 346/213/58 285/243/58 284/242/58
f 346/213/58 284/242/58 345/211/58
f 285/243/84 293/317/84 291/318/84
f 285/243/84 291/318/84 283/244/84
f 293/317/58 281/321/58 280/319/58
f 293/317/58 280/319/58 292/316/58
f 281/321/24 272/277/24 276/276/24
f 281/321/24 276/276/24 282/320/24
f 272/277/58 254/280/58 253/279/58
f 272/277/58 253/279/58 270/273/58
f 254/280/84 264/323/84 262/324/84
f 254/280/84 262/324/84 251/281/84
f 264/323/58 34/339/58 33/337/58
f 264/323/58 33/337/58 263/322/58
f 34/339/24 30/329/24 32/328/24
f 34/339/24 32/328/24 35/338/24
f 30/329/51 116/326/51 117/327/51
f 30/329/51 117/327/51 31/330/51
f 116/326/24 26/147/24 29/146/24
f 116/326/24 29/146/24 118/325/24
f 26/147/51 68/128/51 69/138/51
f 26/147/51 69/138/51 27/152/51
f 68/128/24 67/126/24 74/125/24
f 68/128/24 74/125/24 75/127/24
f 67/126/79 72/133/79 63/135/79
f 67/126/79 63/135/79 62/129/79
f 72/133/77 82/145/77 76/149/77
f 72/133/77 76/149/77 65/137/77
f 82/145/75 90/158/75 84/161/75
f 82/145/75 84/161/75 78/151/75
f 90/158/73 98/165/73 92/167/73
f 90/158/73 92/167/73 86/163/73
f 98/165/68 106/174/68 100/176/68
f 98/165/68 100/176/68 94/169/68
f 106/174/66 114/181/66 108/183/66
f 106/174/66 108/183/66 102/178/66
f 114/181/64 125/187/64 119/189/64
f 114/181/64 119/189/64 110/185/64
f 125/187/60 133/193/60 127/196/60
f 125/187/60 127/196/60 121/191/60
f 133/193/57 139/194/57 135/200/57
f 133/193/57 135/200/57 129/198/57
f 139/194/53 145/192/53 147/197/53
f 139/194/53 147/197/53 141/199/53
f 145/192/50 153/186/50 155/190/50
f 145/192/50 155/190/50 149/195/50
f 153/186/45 161/180/45 163/184/45
f 153/186/45 163/184/45 157/188/45
f 161/180/43 169/173/43 171/177/43
f 161/180/43 171/177/43 165/182/43
f 169/173/41 177/164/41 179/168/41
f 169/173/41 179/168/41 173/175/41
f 177/164/36 185/157/36 187/162/36
f 177/164/36 187/162/36 181/166/36
f 185/157/34 193/144/34 195/150/34
f 185/157/34 195/150/34 189/160/34
f 193/144/32 201/132/32 203/136/32
f 193/144/32 203/136/32 197/148/32
f 201/132/30 209/119/30 211/123/30
f 201/132/30 211/123/30 205/134/30
f 209/119/28 217/113/28 219/116/28
f 209/119/28 219/116/28 213/121/28
f 217/113/26 225/107/26 229/110/26
f 217/113/26 229/110/26 221/115/26
f 225/107/23 228/102/23 233/104/23
f 225/107/23 233/104/23 231/109/23
f 228/102/22 226/93/22 232/90/22
f 228/102/22 232/90/22 234/99/22
f 226/93/25 218/80/25 222/75/25
f 226/93/25 222/75/25 230/89/25
f 218/80/27 210/70/27 214/66/27
f 218/80/27 214/66/27 220/73/27
f 210/70/29 202/62/29 206/58/29
f 210/70/29 206/58/29 212/64/29
f 202/62/31 194/54/31 198/50/31
f 202/62/31 198/50/31 204/56/31
f 194/54/33 186/46/33 190/42/33
f 194/54/33 190/42/33 196/48/33
f 186/46/35 178/38/35 182/36/35
f 186/46/35 182/36/35 188/40/35
f 178/38/40 170/32/40 174/30/40
f 178/38/40 174/30/40 180/34/40
f 170/32/42 162/26/42 166/24/42
f 170/32/42 166/24/42 172/28/42
f 162/26/44 154/20/44 158/18/44
f 162/26/44 158/18/44 164/22/44
f 154/20/49 146/14/49 150/11/49
f 154/20/49 150/11/49 156/16/49
f 146/14/52 140/13/52 142/7/52
f 146/14/52 142/7/52 148/9/52
f 140/13/56 134/15/56 130/10/56
f 140/13/56 130/10/56 136/8/56
f 134/15/59 126/21/59 122/17/59
f 134/15/59 122/17/59 128/12/59
f 126/21/63 115/27/63 111/23/63
f 126/21/63 111/23/63 120/19/63
f 115/27/65 107/33/65 103/29/65
f 115/27/65 103/29/65 109/25/65
f 107/33/67 99/39/67 95/35/67
f 107/33/67 95/35/67 101/31/67
f 99/39/72 91/47/72 87/41/72
f 99/39/72 87/41/72 93/37/72
f 91/47/74 83/55/74 79/49/74
f 91/47/74 79/49/74 85/43/74
f 83/55/76 73/63/76 66/57/76
f 83/55/76 66/57/76 77/51/76
f 73/63/78 61/71/78 57/65/78
f 73/63/78 57/65/78 64/59/78
f 61/71/81 53/81/81 47/74/81
f 61/71/81 47/74/81 56/67/81
f 53/81/83 48/88/83 37/86/83
f 53/81/83 37/86/83 46/76/83
f 48/88/24 45/85/24 49/84/24
f 48/88/24 49/84/24 54/87/24
f 45/85/58 23/97/58 22/95/58
f 45/85/58 22/95/58 40/83/58
f 23/97/84 25/140/84 24/141/84
f 23/97/84 24/141/84 20/98/84
f 25/140/24 19/82/24 21/77/24
f 25/140/24 21/77/24 28/139/24
f 19/82/58 6/154/58 5/153/58
f 19/82/58 5/153/58 18/72/58
f 6/154/84 8/334/84 7/335/84
f 6/154/84 7/335/84 4/159/84
f 8/334/51 11/331/51 12/333/51
f 8/334/51 12/333/51 9/336/51
f 11/331/84 15/347/84 13/348/84
f 11/331/84 13/348/84 10/332/84
f 15/347/58 3/350/58 2/349/58
f 15/347/58 2/349/58 14/346/58
f 347/1/82 357/3/82 356/5/82
f 347/1/82 356/5/82 344/2/82
f 357/3/85 363/170/85 362/172/85
f 357/3/85 362/172/85 355/4/85
f 363/170/86 366/263/86 364/264/86
f 363/170/86 364/264/86 361/171/86
f 366/263/80 360/284/80 358/283/80
f 366/263/80 358/283/80 365/262/80
f 360/284/58 353/288/58 352/285/58
f 360/284/58 352/285/58 359/282/58
f 265/251/51 274/248/51 275/249/51
f 265/251/51 275/249/51 266/255/51
f 274/248/24 257/205/24 258/202/24
f 274/248/24 258/202/24 277/245/24
f 257/205/58 238/209/58 236/206/58
f 257/205/58 236/206/58 255/201/58
f 238/209/84 241/267/84 239/268/84
f 238/209/84 239/268/84 235/210/84
f 241/267/51 244/259/51 245/261/51
f 241/267/51 245/261/51 242/269/51
f 244/259/84 250/274/84 249/275/84
f 244/259/84 249/275/84 243/260/84
f 250/274/51 268/271/51 269/272/51
f 250/274/51 269/272/51 252/278/51
f 268/271/24 265/251/24 267/250/24
f 268/271/24 267/250/24 271/270/24
f 350/289/54 340/215/54 342/214/54
f 350/289/54 342/214/54 351/287/54
f 343/291/54 336/217/54 338/216/54
f 343/291/54 338/216/54 349/290/54
f 339/293/54 332/219/54 334/218/54
f 339/293/54 334/218/54 341/292/54
f 335/295/54 328/221/54 330/220/54
f 335/295/54 330/220/54 337/294/54
f 331/297/54 324/223/54 326/222/54
f 331/297/54 326/222/54 333/296/54
f 327/299/54 320/225/54 322/224/54
f 327/299/54 322/224/54 329/298/54
f 323/301/54 316/227/54 318/226/54
f 323/301/54 318/226/54 325/300/54
f 319/303/54 312/229/54 314/228/54
f 319/303/54 314/228/54 321/302/54
f 315/305/54 308/231/54 310/230/54
f 315/305/54 310/230/54 317/304/54
f 311/307/54 304/233/54 306/232/54
f 311/307/54 306/232/54 313/306/54
f 307/309/54 300/235/54 302/234/54
f 307/309/54 302/234/54 309/308/54
f 303/311/54 296/237/54 298/236/54
f 303/311/54 298/236/54 305/310/54
f 299/313/54 290/239/54 294/238/54
f 299/313/54 294/238/54 301/312/54
f 295/315/54 288/241/54 289/240/54
f 295/315/54 289/240/54 297/314/54
f 240/267/54 237/209/54 256/205/54
f 240/267/54 256/205/54 273/248/54
f 256/203/3 257/204/3 274/247/3
f 256/203/3 274/247/3 273/246/3
f 240/265/105 241/266/105 238/208/105
f 240/265/105 238/208/105 237/207/105
f 237/368/69 238/369/69 257/356/69
f 237/368/69 257/356/69 256/355/69
f 273/351/39 274/352/39 261/354/39
f 273/351/39 261/354/39 260/353/39
f 247/357/39 248/358/39 241/364/39
f 247/357/39 241/364/39 240/363/39
f 260/254/55 287/342/55 279/345/55
f 260/254/55 279/345/55 247/258/55
f 259/252/105 286/340/105 287/341/105
f 259/252/105 287/341/105 260/253/105
f 278/343/3 246/256/3 247/257/3
f 278/343/3 247/257/3 279/344/3
f 151/186/54 143/192/54 137/194/54
f 151/186/54 137/194/54 131/193/54
f 151/186/54 131/193/54 123/187/54
f 151/186/54 123/187/54 112/181/54
f 151/186/54 112/181/54 104/174/54
f 151/186/54 104/174/54 96/165/54
f 151/186/54 96/165/54 88/158/54
f 151/186/54 88/158/54 80/145/54
f 151/186/54 80/145/54 70/133/54
f 151/186/54 70/133/54 58/120/54
f 151/186/54 58/120/54 50/114/54
f 151/186/54 50/114/54 41/108/54
f 151/186/54 41/108/54 38/103/54
f 151/186/54 38/103/54 42/94/54
f 151/186/54 42/94/54 51/81/54
f 151/186/54 51/81/54 59/71/54
f 151/186/54 59/71/54 71/63/54
f 151/186/54 71/63/54 81/55/54
f 151/186/54 81/55/54 89/47/54
f 151/186/54 89/47/54 97/39/54
f 151/186/54 97/39/54 105/33/54
f 151/186/54 105/33/54 113/27/54
f 151/186/54 113/27/54 124/21/54
f 151/186/54 124/21/54 132/15/54
f 151/186/54 132/15/54 138/13/54
f 151/186/54 138/13/54 144/14/54
f 151/186/54 144/14/54 152/20/54
f 151/186/54 152/20/54 160/26/54
f 151/186/54 160/26/54 168/32/54
f 151/186/54 168/32/54 176/38/54
f 151/186/54 176/38/54 184/46/54
f 151/186/54 184/46/54 192/54/54
f 151/186/54 192/54/54 200/62/54
f 151/186/54 200/62/54 208/70/54
f 151/186/54 208/70/54 216/80/54
f 151/186/54 216/80/54 224/93/54
f 151/186/54 224/93/54 227/102/54
f 151/186/54 227/102/54 223/107/54
f 151/186/54 223/107/54 215/113/54
f 151/186/54 215/113/54 207/119/54
f 151/186/54 207/119/54 199/132/54
f 151/186/54 199/132/54 191/144/54
f 151/186/54 191/144/54 183/157/54
f 151/186/54 183/157/54 175/164/54
f 151/186/54 175/164/54 167/173/54
f 151/186/54 167/173/54 159/180/54
f 143/383/38 151/381/38 153/382/38
f 143/383/38 153/382/38 145/384/38
f 151/381/21 159/379/21 161/380/21
f 151/381/21 161/380/21 153/382/21
f 159/379/19 167/377/19 169/378/19
f 159/379/19 169/378/19 161/380/19
f 167/377/17 175/375/17 177/376/17
f 167/377/17 177/376/17 169/378/17
f 175/375/15 183/373/15 185/374/15
f 175/375/15 185/374/15 177/376/15
f 183/155/13 191/142/13 193/143/13
f 183/155/13 193/143/13 185/156/13
f 191/142/11 199/130/11 201/131/11
f 191/142/11 201/131/11 193/143/11
f 199/130/9 207/117/9 209/118/9
f 199/130/9 209/118/9 201/131/9
f 207/117/7 215/111/7 217/112/7
f 207/117/7 217/112/7 209/118/7
f 215/111/5 223/105/5 225/106/5
f 215/111/5 225/106/5 217/112/5
f 223/105/2 227/100/2 228/101/2
f 223/105/2 228/101/2 225/106/2
f 227/100/1 224/91/1 226/92/1
f 227/100/1 226/92/1 228/101/1
f 224/91/4 216/78/4 218/79/4
f 224/91/4 218/79/4 226/92/4
f 216/78/6 208/68/6 210/69/6
f 216/78/6 210/69/6 218/79/6
f 208/68/8 200/60/8 202/61/8
f 208/68/8 202/61/8 210/69/8
f 200/60/10 192/52/10 194/53/10
f 200/60/10 194/53/10 202/61/10
f 192/52/12 184/44/12 186/45/12
f 192/52/12 186/45/12 194/53/12
f 184/373/14 176/375/14 178/376/14
f 184/373/14 178/376/14 186/374/14
f 176/375/16 168/377/16 170/378/16
f 176/375/16 170/378/16 178/376/16
f 168/377/18 160/379/18 162/380/18
f 168/377/18 162/380/18 170/378/18
f 160/379/20 152/381/20 154/382/20
f 160/379/20 154/382/20 162/380/20
f 152/381/37 144/383/37 146/384/37
f 152/381/37 146/384/37 154/382/37
f 144/383/47 138/385/47 140/386/47
f 144/383/47 140/386/47 146/384/47
f 138/385/61 132/387/61 134/388/61
f 138/385/61 134/388/61 140/386/61
f 132/387/70 124/389/70 126/390/70
f 132/387/70 126/390/70 134/388/70
f 124/389/87 113/391/87 115/392/87
f 124/389/87 115/392/87 126/390/87
f 113/391/89 105/393/89 107/394/89
f 113/391/89 107/394/89 115/392/89
f 105/393/91 97/395/91 99/396/91
f 105/393/91 99/396/91 107/394/91
f 97/395/93 89/397/93 91/398/93
f 97/395/93 91/398/93 99/396/93
f 89/44/95 81/52/95 83/53/95
f 89/44/95 83/53/95 91/45/95
f 81/52/97 71/60/97 73/61/97
f 81/52/97 73/61/97 83/53/97
f 71/60/99 59/68/99 61/69/99
f 71/60/99 61/69/99 73/61/99
f 59/68/101 51/78/101 53/79/101
f 59/68/101 53/79/101 61/69/101
f 51/78/103 42/91/103 44/92/103
f 51/78/103 44/92/103 53/79/103
f 42/91/106 38/100/106 39/101/106
f 42/91/106 39/101/106 44/92/106
f 38/100/107 41/105/107 43/106/107
f 38/100/107 43/106/107 39/101/107
f 41/105/104 50/111/104 52/112/104
f 41/105/104 52/112/104 43/106/104
f 50/111/102 58/117/102 60/118/102
f 50/111/102 60/118/102 52/112/102
f 58/117/100 70/130/100 72/131/100
f 58/117/100 72/131/100 60/118/100
f 70/130/98 80/142/98 82/143/98
f 70/130/98 82/143/98 72/131/98
f 80/142/96 88/155/96 90/156/96
f 80/142/96 90/156/96 82/143/96
f 88/397/94 96/395/94 98/396/94
f 88/397/94 98/396/94 90/398/94
f 96/395/92 104/393/92 106/394/92
f 96/395/92 106/394/92 98/396/92
f 104/393/90 112/391/90 114/392/90
f 104/393/90 114/392/90 106/394/90
f 112/391/88 123/389/88 125/390/88
f 112/391/88 125/390/88 114/392/88
f 123/389/71 131/387/71 133/388/71
f 123/389/71 133/388/71 125/390/71
f 131/387/62 137/385/62 139/386/62
f 131/387/62 139/386/62 133/388/62
f 137/385/48 143/383/48 145/384/48
f 137/385/48 145/384/48 139/386/48
f 36/96/46 55/122/46 17/179/46
f 36/96/46 17/179/46 16/124/46
f 378/365/54 377/360/54 383/359/54
f 378/365/54 383/359/54 381/366/54
f 378/365/54 381/366/54 379/367/54
f 378/365/54 379/367/54 384/400/54
f 384/400/54 385/399/54 386/406/54
f 384/400/54 386/406/54 382/405/54
f 384/400/54 382/405/54 380/401/54
f 384/400/54 380/401/54 375/404/54
f 375/404/54 376/407/54 370/408/54
f 375/404/54 370/408/54 372/403/54
f 375/404/54 372/403/54 374/402/54
f 375/404/54 374/402/54 369/371/54
f 369/371/54 368/372/54 367/361/54
f 369/371/54 367/361/54 371/362/54
f 369/371/54 371/362/54 373/370/54
f 369/371/54 373/370/54 378/365/54
f 369/371/54 378/365/54 384/400/54
f 369/371/54 384/400/54 375/404/54
