# KeromanRoof - Lorient / Keroman 1943, generated by Tools/generate-lorient.py
# metres; Y up; OBJ (x, y, z) = (-north, up, -east); import roll 90 yaw 90
o KeromanRoof
v -379.412 15.500 136.185
v -372.466 15.500 96.792
v -340.020 15.500 143.131
v -335.981 23.000 238.278
v -333.074 15.500 103.738
v -321.221 23.000 154.569
v -305.852 23.000 76.045
v -283.625 23.000 -50.011
v -218.296 23.000 259.028
v -203.536 23.000 175.320
v -169.948 23.000 100.008
v -147.721 23.000 -26.047
v -130.206 11.500 122.247
v -128.470 11.500 112.399
v -127.368 16.500 117.670
v -118.388 11.500 124.331
v -116.652 11.500 114.483
v -113.824 16.500 40.855
v -107.672 16.500 121.143
v -107.672 21.300 121.143
v -106.745 21.300 120.494
v -106.745 24.500 120.494
v -106.468 21.300 118.919
v -106.468 24.500 118.919
v -104.480 21.300 120.894
v -104.480 24.500 120.894
v -102.905 21.300 121.172
v -102.905 24.500 121.172
v -101.033 21.300 121.502
v -101.033 24.500 121.502
v -99.458 21.300 121.779
v -99.458 24.500 121.779
v -97.587 21.300 122.109
v -97.587 24.500 122.109
v -96.011 21.300 122.387
v -96.011 24.500 122.387
v -94.140 21.300 122.717
v -94.140 24.500 122.717
v -94.128 16.500 44.328
v -92.564 21.300 122.995
v -92.564 24.500 122.995
v -90.693 21.300 123.325
v -90.693 24.500 123.325
v -89.117 21.300 123.603
v -89.117 24.500 123.603
v -87.246 21.300 123.933
v -87.246 24.500 123.933
v -85.670 21.300 124.211
v -85.670 24.500 124.211
v -83.799 21.300 124.540
v -83.799 24.500 124.540
v -83.014 21.300 -18.699
v -82.643 21.300 -16.197
v -82.643 24.500 -16.197
v -82.365 21.300 -17.773
v -82.365 24.500 -17.773
v -82.224 21.300 124.818
v -82.224 24.500 124.818
v -80.352 21.300 125.148
v -80.352 24.500 125.148
v -80.100 21.300 -17.373
v -80.100 24.500 -17.373
v -78.777 21.300 125.426
v -78.777 24.500 125.426
v -78.524 21.300 -17.095
v -78.524 24.500 -17.095
v -76.906 21.300 125.756
v -76.906 24.500 125.756
v -76.653 21.300 -16.765
v -76.653 24.500 -16.765
v -75.330 21.300 126.034
v -75.330 24.500 126.034
v -75.078 21.300 -16.488
v -75.078 24.500 -16.488
v -73.459 21.300 126.364
v -73.459 24.500 126.364
v -73.206 21.300 -16.158
v -73.206 24.500 -16.158
v -71.883 21.300 126.642
v -71.883 24.500 126.642
v -71.631 21.300 -15.880
v -71.631 24.500 -15.880
v -70.012 21.300 126.972
v -70.012 24.500 126.972
v -69.760 21.300 -15.550
v -69.760 24.500 -15.550
v -68.436 21.300 127.249
v -68.436 24.500 127.249
v -68.184 21.300 -15.272
v -68.184 24.500 -15.272
v -66.565 21.300 127.579
v -66.565 24.500 127.579
v -66.313 21.300 -14.942
v -66.313 24.500 -14.942
v -64.989 21.300 127.857
v -64.989 24.500 127.857
v -64.737 21.300 -14.664
v -64.737 24.500 -14.664
v -63.118 21.300 128.187
v -63.118 24.500 128.187
v -62.866 21.300 -14.334
v -62.866 24.500 -14.334
v -61.543 21.300 128.465
v -61.543 24.500 128.465
v -61.290 21.300 -14.056
v -61.290 24.500 -14.056
v -59.672 21.300 128.795
v -59.672 24.500 128.795
v -59.419 21.300 -13.727
v -59.419 24.500 -13.727
v -58.096 21.300 129.073
v -58.096 24.500 129.073
v -57.843 21.300 -13.449
v -57.843 24.500 -13.449
v -56.225 21.300 129.403
v -56.225 24.500 129.403
v -55.972 21.300 -13.119
v -55.972 24.500 -13.119
v -54.649 21.300 129.680
v -54.649 24.500 129.680
v -54.397 21.300 -12.841
v -54.397 24.500 -12.841
v -52.778 21.300 130.010
v -52.778 24.500 130.010
v -52.525 21.300 -12.511
v -52.525 24.500 -12.511
v -51.202 21.300 130.288
v -51.202 24.500 130.288
v -50.950 21.300 -12.233
v -50.950 24.500 -12.233
v -49.331 21.300 130.618
v -49.331 24.500 130.618
v -49.079 21.300 -11.903
v -49.079 24.500 -11.903
v -47.755 21.300 130.896
v -47.755 24.500 130.896
v -47.503 21.300 -11.625
v -47.503 24.500 -11.625
v -45.884 21.300 131.226
v -45.884 24.500 131.226
v -45.632 21.300 -11.295
v -45.632 24.500 -11.295
v -44.309 21.300 131.504
v -44.309 24.500 131.504
v -44.056 21.300 -11.018
v -44.056 24.500 -11.018
v -42.437 21.300 131.834
v -42.437 24.500 131.834
v -42.185 21.300 -10.688
v -42.185 24.500 -10.688
v -40.862 21.300 132.112
v -40.862 24.500 132.112
v -40.609 21.300 -10.410
v -40.609 24.500 -10.410
v -38.991 21.300 132.441
v -38.991 24.500 132.441
v -38.738 21.300 -10.080
v -38.738 24.500 -10.080
v -37.415 21.300 132.719
v -37.415 24.500 132.719
v -37.162 21.300 -9.802
v -37.162 24.500 -9.802
v -35.544 21.300 133.049
v -35.544 24.500 133.049
v -35.291 21.300 -9.472
v -35.291 24.500 -9.472
v -33.968 21.300 133.327
v -33.968 24.500 133.327
v -33.716 21.300 -9.194
v -33.716 24.500 -9.194
v -32.097 21.300 133.657
v -32.097 24.500 133.657
v -31.845 21.300 -8.864
v -31.845 24.500 -8.864
v -30.521 21.300 133.935
v -30.521 24.500 133.935
v -30.269 21.300 -8.587
v -30.269 24.500 -8.587
v -28.650 21.300 134.265
v -28.650 24.500 134.265
v -28.398 21.300 -8.257
v -28.398 24.500 -8.257
v -27.074 21.300 134.543
v -27.074 24.500 134.543
v -26.822 21.300 -7.979
v -26.822 24.500 -7.979
v -25.203 21.300 134.873
v -25.203 24.500 134.873
v -24.951 21.300 -7.649
v -24.951 24.500 -7.649
v -23.628 21.300 135.150
v -23.628 24.500 135.150
v -23.375 21.300 -7.371
v -23.375 24.500 -7.371
v -21.756 21.300 135.480
v -21.756 24.500 135.480
v -21.504 21.300 -7.041
v -21.504 24.500 -7.041
v -20.181 21.300 135.758
v -20.181 24.500 135.758
v -19.928 21.300 -6.763
v -19.928 24.500 -6.763
v -18.310 21.300 136.088
v -18.310 24.500 136.088
v -18.057 21.300 -6.433
v -18.057 24.500 -6.433
v -16.734 21.300 136.366
v -16.734 24.500 136.366
v -16.481 21.300 -6.155
v -16.481 24.500 -6.155
v -14.863 21.300 136.696
v -14.863 24.500 136.696
v -14.610 21.300 -5.826
v -14.610 24.500 -5.826
v -13.287 21.300 136.974
v -13.287 24.500 136.974
v -13.035 21.300 -5.548
v -13.035 24.500 -5.548
v -11.416 21.300 137.304
v -11.416 24.500 137.304
v -11.164 21.300 -5.218
v -11.164 24.500 -5.218
v -9.840 21.300 137.581
v -9.840 24.500 137.581
v -9.588 21.300 -4.940
v -9.588 24.500 -4.940
v -7.969 21.300 137.911
v -7.969 24.500 137.911
v -7.717 21.300 -4.610
v -7.717 24.500 -4.610
v -6.393 21.300 138.189
v -6.393 24.500 138.189
v -6.141 21.300 -4.332
v -6.141 24.500 -4.332
v -4.522 21.300 138.519
v -4.522 24.500 138.519
v -4.270 21.300 -4.002
v -4.270 24.500 -4.002
v -2.947 21.300 138.797
v -2.947 24.500 138.797
v -2.694 21.300 -3.724
v -2.694 24.500 -3.724
v -1.075 21.300 139.127
v -1.075 24.500 139.127
v -0.823 21.300 -3.394
v -0.823 24.500 -3.394
v 0.500 21.300 139.405
v 0.500 24.500 139.405
v 0.753 21.300 -3.117
v 0.753 24.500 -3.117
v 2.371 21.300 139.735
v 2.371 24.500 139.735
v 2.624 21.300 -2.787
v 2.624 24.500 -2.787
v 3.947 21.300 140.013
v 3.947 24.500 140.013
v 4.199 21.300 -2.509
v 4.199 24.500 -2.509
v 5.818 21.300 140.342
v 5.818 24.500 140.342
v 6.071 21.300 -2.179
v 6.071 24.500 -2.179
v 7.394 21.300 140.620
v 7.394 24.500 140.620
v 7.646 21.300 -1.901
v 7.646 24.500 -1.901
v 9.265 21.300 140.950
v 9.265 24.500 140.950
v 9.517 21.300 -1.571
v 9.517 24.500 -1.571
v 10.841 21.300 141.228
v 10.841 24.500 141.228
v 11.093 21.300 -1.293
v 11.093 24.500 -1.293
v 12.712 21.300 141.558
v 12.712 24.500 141.558
v 12.964 21.300 -0.963
v 12.964 24.500 -0.963
v 14.288 21.300 141.836
v 14.288 24.500 141.836
v 14.540 21.300 -0.686
v 14.540 24.500 -0.686
v 16.159 21.300 142.166
v 16.159 24.500 142.166
v 16.411 21.300 -0.356
v 16.411 24.500 -0.356
v 17.734 21.300 142.444
v 17.734 24.500 142.444
v 17.987 21.300 -0.078
v 17.987 24.500 -0.078
v 19.605 21.300 142.774
v 19.605 24.500 142.774
v 19.858 21.300 0.252
v 19.858 24.500 0.252
v 21.181 21.300 143.051
v 21.181 24.500 143.051
v 21.434 21.300 0.530
v 21.434 24.500 0.530
v 23.052 21.300 143.381
v 23.052 24.500 143.381
v 23.305 21.300 0.860
v 23.305 24.500 0.860
v 24.628 21.300 143.659
v 24.628 24.500 143.659
v 24.880 21.300 1.138
v 24.880 24.500 1.138
v 26.499 21.300 143.989
v 26.499 24.500 143.989
v 26.752 21.300 1.468
v 26.752 24.500 1.468
v 28.075 21.300 144.267
v 28.075 24.500 144.267
v 28.327 21.300 1.745
v 28.327 24.500 1.745
v 29.946 21.300 144.597
v 29.946 24.500 144.597
v 30.198 21.300 2.075
v 30.198 24.500 2.075
v 31.522 21.300 144.875
v 31.522 24.500 144.875
v 31.774 21.300 2.353
v 31.774 24.500 2.353
v 33.393 21.300 145.205
v 33.393 24.500 145.205
v 33.645 21.300 2.683
v 33.645 24.500 2.683
v 34.968 21.300 145.482
v 34.968 24.500 145.482
v 35.221 21.300 2.961
v 35.221 24.500 2.961
v 36.840 21.300 145.812
v 36.840 24.500 145.812
v 37.092 21.300 3.291
v 37.092 24.500 3.291
v 38.415 21.300 146.090
v 38.415 24.500 146.090
v 38.668 21.300 3.569
v 38.668 24.500 3.569
v 40.286 21.300 146.420
v 40.286 24.500 146.420
v 40.539 21.300 3.899
v 40.539 24.500 3.899
v 41.862 21.300 146.698
v 41.862 24.500 146.698
v 42.115 21.300 4.177
v 42.115 24.500 4.177
v 43.733 21.300 147.028
v 43.733 24.500 147.028
v 43.986 21.300 4.506
v 43.986 24.500 4.506
v 45.309 21.300 147.306
v 45.309 24.500 147.306
v 45.561 21.300 4.784
v 45.561 24.500 4.784
v 47.180 21.300 147.636
v 47.180 24.500 147.636
v 47.433 21.300 5.114
v 47.433 24.500 5.114
v 48.756 21.300 147.913
v 48.756 24.500 147.913
v 49.008 21.300 5.392
v 49.008 24.500 5.392
v 50.627 21.300 148.243
v 50.627 24.500 148.243
v 50.879 21.300 5.722
v 50.879 24.500 5.722
v 52.203 21.300 148.521
v 52.203 24.500 148.521
v 52.455 21.300 6.000
v 52.455 24.500 6.000
v 54.074 21.300 148.851
v 54.074 24.500 148.851
v 54.326 21.300 6.330
v 54.326 24.500 6.330
v 55.649 21.300 149.129
v 55.649 24.500 149.129
v 55.902 21.300 6.608
v 55.902 24.500 6.608
v 57.521 21.300 149.459
v 57.521 24.500 149.459
v 57.773 21.300 6.938
v 57.773 24.500 6.938
v 59.096 21.300 149.737
v 59.096 24.500 149.737
v 59.349 21.300 7.215
v 59.349 24.500 7.215
v 59.374 21.300 148.161
v 59.374 24.500 148.161
v 59.745 14.500 150.664
v 59.745 21.300 150.664
v 61.220 21.300 7.545
v 61.220 24.500 7.545
v 62.796 21.300 7.823
v 62.796 24.500 7.823
v 64.667 21.300 8.153
v 64.667 24.500 8.153
v 66.242 21.300 8.431
v 66.242 24.500 8.431
v 68.113 21.300 8.761
v 68.113 24.500 8.761
v 69.689 21.300 9.039
v 69.689 24.500 9.039
v 69.817 14.500 93.545
v 71.560 21.300 9.369
v 71.560 24.500 9.369
v 73.136 21.300 9.646
v 73.136 24.500 9.646
v 75.007 21.300 9.976
v 75.007 24.500 9.976
v 76.583 21.300 10.254
v 76.583 24.500 10.254
v 78.454 21.300 10.584
v 78.454 24.500 10.584
v 79.441 14.500 154.137
v 80.030 21.300 10.862
v 80.030 24.500 10.862
v 81.901 21.300 11.192
v 81.901 24.500 11.192
v 83.199 21.300 13.045
v 83.199 24.500 13.045
v 83.476 21.300 11.470
v 83.476 24.500 11.470
v 84.403 21.300 10.821
v 89.513 14.500 97.018
vt -21.5857 18.1914
vt -19.8565 27.9984
vt -14.6100 16.9613
vt -12.8807 26.7684
vt -12.8447 -6.6201
vt -12.5553 -4.9788
vt -12.4781 -4.9247
vt -12.4781 1.7750
vt -12.4781 2.0417
vt -12.4549 -4.7934
vt -12.4549 1.7750
vt -12.4549 2.0417
vt -12.4274 -4.6375
vt -12.4274 1.7750
vt -12.4274 2.0417
vt -12.4043 -4.5061
vt -12.4043 1.7750
vt -12.4043 2.0417
vt -12.3768 -4.3502
vt -12.3768 1.7750
vt -12.3768 2.0417
vt -12.3536 -4.2189
vt -12.3536 1.7750
vt -12.3536 2.0417
vt -12.3468 -4.9478
vt -12.3468 1.7750
vt -12.3468 2.0417
vt -12.3261 -4.0630
vt -12.3261 1.7750
vt -12.3261 2.0417
vt -12.3030 -3.9317
vt -12.3030 1.7750
vt -12.3030 2.0417
vt -12.2755 -3.7757
vt -12.2755 1.7750
vt -12.2755 2.0417
vt -12.2523 -3.6444
vt -12.2523 1.7750
vt -12.2523 2.0417
vt -12.2248 -3.4885
vt -12.2248 1.7750
vt -12.2248 2.0417
vt -12.2017 -3.3572
vt -12.2017 1.7750
vt -12.2017 2.0417
vt -12.1742 -3.2013
vt -12.1742 1.7750
vt -12.1742 2.0417
vt -12.1510 -3.0700
vt -12.1510 1.7750
vt -12.1510 2.0417
vt -12.1235 -2.9140
vt -12.1235 1.7750
vt -12.1235 2.0417
vt -12.1004 -2.7827
vt -12.1004 1.7750
vt -12.1004 2.0417
vt -12.0729 -2.6268
vt -12.0729 1.7750
vt -12.0729 2.0417
vt -12.0497 -2.4955
vt -12.0497 1.7750
vt -12.0497 2.0417
vt -12.0222 -2.3396
vt -12.0222 1.7750
vt -12.0222 2.0417
vt -11.9991 -2.2083
vt -11.9991 1.7750
vt -11.9991 2.0417
vt -11.9716 -2.0523
vt -11.9716 1.7750
vt -11.9716 2.0417
vt -11.9484 -1.9210
vt -11.9484 1.7750
vt -11.9484 2.0417
vt -11.9276 28.3350
vt -11.9209 -1.7651
vt -11.9209 1.7750
vt -11.9209 2.0417
vt -11.8978 -1.6338
vt -11.8978 1.7750
vt -11.8978 2.0417
vt -11.8703 -1.4779
vt -11.8703 1.7750
vt -11.8703 2.0417
vt -11.8471 -1.3466
vt -11.8471 1.7750
vt -11.8471 2.0417
vt -11.8197 -1.1906
vt -11.8197 1.7750
vt -11.8197 2.0417
vt -11.7965 -1.0593
vt -11.7965 1.7750
vt -11.7965 2.0417
vt -11.7690 -0.9034
vt -11.7690 1.7750
vt -11.7690 2.0417
vt -11.7459 -0.7721
vt -11.7459 1.7750
vt -11.7459 2.0417
vt -11.7184 -0.6162
vt -11.7184 1.7750
vt -11.7184 2.0417
vt -11.6952 -0.4848
vt -11.6952 1.7750
vt -11.6952 2.0417
vt -11.6677 -0.3289
vt -11.6677 1.7750
vt -11.6677 2.0417
vt -11.6446 -0.1976
vt -11.6446 1.7750
vt -11.6446 2.0417
vt -11.6171 -0.0417
vt -11.6171 1.7750
vt -11.6171 2.0417
vt -11.5939 0.0896
vt -11.5939 1.7750
vt -11.5939 2.0417
vt -11.5664 0.2456
vt -11.5664 1.7750
vt -11.5664 2.0417
vt -11.5433 0.3769
vt -11.5433 1.7750
vt -11.5433 2.0417
vt -11.5158 0.5328
vt -11.5158 1.7750
vt -11.5158 2.0417
vt -11.4926 0.6641
vt -11.4926 1.7750
vt -11.4926 2.0417
vt -11.4651 0.8200
vt -11.4651 1.7750
vt -11.4651 2.0417
vt -11.4420 0.9513
vt -11.4420 1.7750
vt -11.4420 2.0417
vt -11.4145 1.1073
vt -11.4145 1.7750
vt -11.4145 2.0417
vt -11.3913 1.2386
vt -11.3913 1.7750
vt -11.3913 2.0417
vt -11.3638 1.3945
vt -11.3638 1.7750
vt -11.3638 2.0417
vt -11.3487 31.6177
vt -11.3407 1.5258
vt -11.3407 1.7750
vt -11.3407 2.0417
vt -11.3132 1.6817
vt -11.3132 1.7750
vt -11.3132 2.0417
vt -11.2900 1.7750
vt -11.2900 1.8130
vt -11.2900 2.0417
vt -11.2625 1.7750
vt -11.2625 1.9690
vt -11.2625 2.0417
vt -11.2394 1.7750
vt -11.2394 2.0417
vt -11.2394 2.1003
vt -11.2119 1.7750
vt -11.2119 2.0417
vt -11.2119 2.2562
vt -11.1887 1.7750
vt -11.1887 2.0417
vt -11.1887 2.3875
vt -11.1612 1.7750
vt -11.1612 2.0417
vt -11.1612 2.5434
vt -11.1381 1.7750
vt -11.1381 2.0417
vt -11.1381 2.6747
vt -11.1106 1.7750
vt -11.1106 2.0417
vt -11.1106 2.8307
vt -11.0874 1.7750
vt -11.0874 2.0417
vt -11.0874 2.9620
vt -11.0599 1.7750
vt -11.0599 2.0417
vt -11.0599 3.1179
vt -11.0368 1.7750
vt -11.0368 2.0417
vt -11.0368 3.2492
vt -11.0093 1.7750
vt -11.0093 2.0417
vt -11.0093 3.4051
vt -10.9861 1.7750
vt -10.9861 2.0417
vt -10.9861 3.5364
vt -10.9586 1.7750
vt -10.9586 2.0417
vt -10.9586 3.6924
vt -10.9355 1.7750
vt -10.9355 2.0417
vt -10.9355 3.8237
vt -10.9080 1.7750
vt -10.9080 2.0417
vt -10.9080 3.9796
vt -10.8848 1.7750
vt -10.8848 2.0417
vt -10.8848 4.1109
vt -10.8574 1.7750
vt -10.8574 2.0417
vt -10.8574 4.2668
vt -10.8342 1.7750
vt -10.8342 2.0417
vt -10.8342 4.3982
vt -10.8067 1.7750
vt -10.8067 2.0417
vt -10.8067 4.5541
vt -10.7835 1.7750
vt -10.7835 2.0417
vt -10.7835 4.6854
vt -10.7561 1.7750
vt -10.7561 2.0417
vt -10.7561 4.8413
vt -10.7329 1.7750
vt -10.7329 2.0417
vt -10.7329 4.9726
vt -10.7054 1.7750
vt -10.7054 2.0417
vt -10.7054 5.1286
vt -10.6823 1.7750
vt -10.6823 2.0417
vt -10.6823 5.2599
vt -10.6548 1.7750
vt -10.6548 2.0417
vt -10.6548 5.4158
vt -10.6316 1.7750
vt -10.6316 2.0417
vt -10.6316 5.5471
vt -10.6041 1.7750
vt -10.6041 2.0417
vt -10.6041 5.7030
vt -10.5810 1.7750
vt -10.5810 2.0417
vt -10.5810 5.8343
vt -10.5535 1.7750
vt -10.5535 2.0417
vt -10.5535 5.9903
vt -10.5303 1.7750
vt -10.5303 2.0417
vt -10.5303 6.1216
vt -10.5028 1.7750
vt -10.5028 2.0417
vt -10.5028 6.2775
vt -10.4797 1.7750
vt -10.4797 2.0417
vt -10.4797 6.4088
vt -10.4522 1.7750
vt -10.4522 2.0417
vt -10.4522 6.5647
vt -10.4290 1.7750
vt -10.4290 2.0417
vt -10.4290 6.6960
vt -10.4015 1.7750
vt -10.4015 2.0417
vt -10.4015 6.8520
vt -10.3784 1.7750
vt -10.3784 2.0417
vt -10.3784 6.9833
vt -10.3609 9.8657
vt -10.3509 1.7750
vt -10.3509 2.0417
vt -10.3509 7.1392
vt -10.3277 1.7750
vt -10.3277 2.0417
vt -10.3277 7.2705
vt -10.3002 1.7750
vt -10.3002 2.0417
vt -10.3002 7.4264
vt -10.2771 1.7750
vt -10.2771 2.0417
vt -10.2771 7.5577
vt -10.2496 1.7750
vt -10.2496 2.0417
vt -10.2496 7.7137
vt -10.2264 1.7750
vt -10.2264 2.0417
vt -10.2264 7.8450
vt -10.1989 1.7750
vt -10.1989 2.0417
vt -10.1989 8.0009
vt -10.1873 10.8505
vt -10.1758 1.7750
vt -10.1758 2.0417
vt -10.1758 8.1322
vt -10.1483 1.7750
vt -10.1483 2.0417
vt -10.1483 8.2881
vt -10.1251 1.7750
vt -10.1251 2.0417
vt -10.1251 8.4195
vt -10.0976 1.7750
vt -10.0976 2.0417
vt -10.0976 8.5754
vt -10.0953 8.9727
vt -10.0745 1.7750
vt -10.0745 2.0417
vt -10.0745 8.7067
vt -10.0412 1.7750
vt -10.0412 2.0417
vt -10.0412 8.8954
vt -9.9099 1.7750
vt -9.9099 2.0417
vt -9.9099 8.8723
vt -9.8059 10.6140
vt -9.5402 9.7210
vt -9.3666 10.7058
vt -8.6449 27.7562
vt -8.3340 14.1623
vt -8.0848 -7.4594
vt -8.0660 31.0389
vt -7.7954 -5.8181
vt -6.9564 1.7750
vt -6.9564 2.0417
vt -6.9332 1.7750
vt -6.9332 2.0417
vt -6.8251 1.7750
vt -6.8251 2.0417
vt -6.6691 1.7750
vt -6.6691 2.0417
vt -6.5378 1.7750
vt -6.5378 2.0417
vt -6.3819 1.7750
vt -6.3819 2.0417
vt -6.3371 25.4876
vt -6.2506 1.7750
vt -6.2506 2.0417
vt -6.0947 1.7750
vt -6.0947 2.0417
vt -5.9634 1.7750
vt -5.9634 2.0417
vt -5.8074 1.7750
vt -5.8074 2.0417
vt -5.6761 1.7750
vt -5.6761 2.0417
vt -5.5202 1.7750
vt -5.5202 2.0417
vt -5.3889 1.7750
vt -5.3889 2.0417
vt -5.2330 1.7750
vt -5.2330 2.0417
vt -5.1017 1.7750
vt -5.1017 2.0417
vt -4.9478 1.7750
vt -4.9478 2.0417
vt -4.9457 1.7750
vt -4.9457 2.0417
vt -4.9247 1.7750
vt -4.9247 2.0417
vt -4.8144 1.7750
vt -4.8144 2.0417
vt -4.7934 1.7750
vt -4.7934 2.0417
vt -4.6585 1.7750
vt -4.6585 2.0417
vt -4.6375 1.7750
vt -4.6375 2.0417
vt -4.5272 1.7750
vt -4.5272 2.0417
vt -4.5061 1.7750
vt -4.5061 2.0417
vt -4.3713 1.7750
vt -4.3713 2.0417
vt -4.3502 1.7750
vt -4.3502 2.0417
vt -4.2399 1.7750
vt -4.2399 2.0417
vt -4.2189 1.7750
vt -4.2189 2.0417
vt -4.0840 1.7750
vt -4.0840 2.0417
vt -4.0630 1.7750
vt -4.0630 2.0417
vt -3.9527 1.7750
vt -3.9527 2.0417
vt -3.9317 1.7750
vt -3.9317 2.0417
vt -3.7968 1.7750
vt -3.7968 2.0417
vt -3.7757 1.7750
vt -3.7757 2.0417
vt -3.6940 7.8440
vt -3.6655 1.7750
vt -3.6655 2.0417
vt -3.6444 1.7750
vt -3.6444 2.0417
vt -3.5095 1.7750
vt -3.5095 2.0417
vt -3.4885 1.7750
vt -3.4885 2.0417
vt -3.4046 9.4853
vt -3.3782 1.7750
vt -3.3782 2.0417
vt -3.3572 1.7750
vt -3.3572 2.0417
vt -3.2223 1.7750
vt -3.2223 2.0417
vt -3.2013 1.7750
vt -3.2013 2.0417
vt -3.0910 1.7750
vt -3.0910 2.0417
vt -3.0700 1.7750
vt -3.0700 2.0417
vt -2.9351 1.7750
vt -2.9351 2.0417
vt -2.9140 1.7750
vt -2.9140 2.0417
vt -2.8038 1.7750
vt -2.8038 2.0417
vt -2.7827 1.7750
vt -2.7827 2.0417
vt -2.6478 1.7750
vt -2.6478 2.0417
vt -2.6268 1.7750
vt -2.6268 2.0417
vt -2.5165 1.7750
vt -2.5165 2.0417
vt -2.4955 1.7750
vt -2.4955 2.0417
vt -2.3606 1.7750
vt -2.3606 2.0417
vt -2.3396 1.7750
vt -2.3396 2.0417
vt -2.2293 1.7750
vt -2.2293 2.0417
vt -2.2083 1.7750
vt -2.2083 2.0417
vt -2.0734 1.7750
vt -2.0734 2.0417
vt -2.0523 1.7750
vt -2.0523 2.0417
vt -1.9421 1.7750
vt -1.9421 2.0417
vt -1.9210 1.7750
vt -1.9210 2.0417
vt -1.7861 1.7750
vt -1.7861 2.0417
vt -1.7651 1.7750
vt -1.7651 2.0417
vt -1.6548 1.7750
vt -1.6548 2.0417
vt -1.6338 1.7750
vt -1.6338 2.0417
vt -1.4989 1.7750
vt -1.4989 2.0417
vt -1.4779 1.7750
vt -1.4779 2.0417
vt -1.3676 1.7750
vt -1.3676 2.0417
vt -1.3466 1.7750
vt -1.3466 2.0417
vt -1.2117 1.7750
vt -1.2117 2.0417
vt -1.1906 1.7750
vt -1.1906 2.0417
vt -1.0871 -6.9332
vt -1.0871 1.7750
vt -1.0871 2.0417
vt -1.0804 1.7750
vt -1.0804 2.0417
vt -1.0593 1.7750
vt -1.0593 2.0417
vt -0.9558 -6.9564
vt -0.9558 1.7750
vt -0.9558 2.0417
vt -0.9327 -6.8251
vt -0.9327 1.7750
vt -0.9327 2.0417
vt -0.9244 1.7750
vt -0.9244 2.0417
vt -0.9052 -6.6691
vt -0.9052 1.7750
vt -0.9052 2.0417
vt -0.9034 1.7750
vt -0.9034 2.0417
vt -0.9017 -7.0336
vt -0.8820 -6.5378
vt -0.8820 1.7750
vt -0.8820 2.0417
vt -0.8545 -6.3819
vt -0.8545 1.7750
vt -0.8545 2.0417
vt -0.8314 -6.2506
vt -0.8314 1.7750
vt -0.8314 2.0417
vt -0.8039 -6.0947
vt -0.8039 1.7750
vt -0.8039 2.0417
vt -0.7931 1.7750
vt -0.7931 2.0417
vt -0.7807 -5.9634
vt -0.7807 1.7750
vt -0.7807 2.0417
vt -0.7721 1.7750
vt -0.7721 2.0417
vt -0.7532 -5.8074
vt -0.7532 1.7750
vt -0.7532 2.0417
vt -0.7301 -5.6761
vt -0.7301 1.7750
vt -0.7301 2.0417
vt -0.7026 -5.5202
vt -0.7026 1.7750
vt -0.7026 2.0417
vt -0.6794 -5.3889
vt -0.6794 1.7750
vt -0.6794 2.0417
vt -0.6519 -5.2330
vt -0.6519 1.7750
vt -0.6519 2.0417
vt -0.6372 1.7750
vt -0.6372 2.0417
vt -0.6288 -5.1017
vt -0.6288 1.7750
vt -0.6288 2.0417
vt -0.6162 1.7750
vt -0.6162 2.0417
vt -0.6013 -4.9457
vt -0.6013 1.7750
vt -0.6013 2.0417
vt -0.5781 -4.8144
vt -0.5781 1.7750
vt -0.5781 2.0417
vt -0.5506 -4.6585
vt -0.5506 1.7750
vt -0.5506 2.0417
vt -0.5275 -4.5272
vt -0.5275 1.7750
vt -0.5275 2.0417
vt -0.5059 1.7750
vt -0.5059 2.0417
vt -0.5000 -4.3713
vt -0.5000 1.7750
vt -0.5000 2.0417
vt -0.4848 1.7750
vt -0.4848 2.0417
vt -0.4768 -4.2399
vt -0.4768 1.7750
vt -0.4768 2.0417
vt -0.4493 -4.0840
vt -0.4493 1.7750
vt -0.4493 2.0417
vt -0.4262 -3.9527
vt -0.4262 1.7750
vt -0.4262 2.0417
vt -0.3987 -3.7968
vt -0.3987 1.7750
vt -0.3987 2.0417
vt -0.3755 -3.6655
vt -0.3755 1.7750
vt -0.3755 2.0417
vt -0.3500 1.7750
vt -0.3500 2.0417
vt -0.3480 -3.5095
vt -0.3480 1.7750
vt -0.3480 2.0417
vt -0.3289 1.7750
vt -0.3289 2.0417
vt -0.3249 -3.3782
vt -0.3249 1.7750
vt -0.3249 2.0417
vt -0.2974 -3.2223
vt -0.2974 1.7750
vt -0.2974 2.0417
vt -0.2742 -3.0910
vt -0.2742 1.7750
vt -0.2742 2.0417
vt -0.2468 -2.9351
vt -0.2468 1.7750
vt -0.2468 2.0417
vt -0.2236 -2.8038
vt -0.2236 1.7750
vt -0.2236 2.0417
vt -0.2186 1.7750
vt -0.2186 2.0417
vt -0.1976 1.7750
vt -0.1976 2.0417
vt -0.1961 -2.6478
vt -0.1961 1.7750
vt -0.1961 2.0417
vt -0.1730 -2.5165
vt -0.1730 1.7750
vt -0.1730 2.0417
vt -0.1455 -2.3606
vt -0.1455 1.7750
vt -0.1455 2.0417
vt -0.1223 -2.2293
vt -0.1223 1.7750
vt -0.1223 2.0417
vt -0.0948 -2.0734
vt -0.0948 1.7750
vt -0.0948 2.0417
vt -0.0717 -1.9421
vt -0.0717 1.7750
vt -0.0717 2.0417
vt -0.0627 1.7750
vt -0.0627 2.0417
vt -0.0442 -1.7861
vt -0.0442 1.7750
vt -0.0442 2.0417
vt -0.0417 1.7750
vt -0.0417 2.0417
vt -0.0210 -1.6548
vt -0.0210 1.7750
vt -0.0210 2.0417
vt 0.0065 -1.4989
vt 0.0065 1.7750
vt 0.0065 2.0417
vt 0.0296 -1.3676
vt 0.0296 1.7750
vt 0.0296 2.0417
vt 0.0571 -1.2117
vt 0.0571 1.7750
vt 0.0571 2.0417
vt 0.0686 1.7750
vt 0.0686 2.0417
vt 0.0803 -1.0804
vt 0.0803 1.7750
vt 0.0803 2.0417
vt 0.0896 1.7750
vt 0.0896 2.0417
vt 0.1078 -0.9244
vt 0.1078 1.7750
vt 0.1078 2.0417
vt 0.1309 -0.7931
vt 0.1309 1.7750
vt 0.1309 2.0417
vt 0.1584 -0.6372
vt 0.1584 1.7750
vt 0.1584 2.0417
vt 0.1816 -0.5059
vt 0.1816 1.7750
vt 0.1816 2.0417
vt 0.2091 -0.3500
vt 0.2091 1.7750
vt 0.2091 2.0417
vt 0.2245 1.7750
vt 0.2245 2.0417
vt 0.2322 -0.2186
vt 0.2322 1.7750
vt 0.2322 2.0417
vt 0.2456 1.7750
vt 0.2456 2.0417
vt 0.2597 -0.0627
vt 0.2597 1.7750
vt 0.2597 2.0417
vt 0.2829 0.0686
vt 0.2829 1.7750
vt 0.2829 2.0417
vt 0.3104 0.2245
vt 0.3104 1.7750
vt 0.3104 2.0417
vt 0.3335 0.3558
vt 0.3335 1.7750
vt 0.3335 2.0417
vt 0.3558 1.7750
vt 0.3558 2.0417
vt 0.3610 0.5118
vt 0.3610 1.7750
vt 0.3610 2.0417
vt 0.3769 1.7750
vt 0.3769 2.0417
vt 0.3842 0.6431
vt 0.3842 1.7750
vt 0.3842 2.0417
vt 0.4117 0.7990
vt 0.4117 1.7750
vt 0.4117 2.0417
vt 0.4348 0.9303
vt 0.4348 1.7750
vt 0.4348 2.0417
vt 0.4623 1.0862
vt 0.4623 1.7750
vt 0.4623 2.0417
vt 0.4855 1.2175
vt 0.4855 1.7750
vt 0.4855 2.0417
vt 0.5118 1.7750
vt 0.5118 2.0417
vt 0.5130 1.3735
vt 0.5130 1.7750
vt 0.5130 2.0417
vt 0.5328 1.7750
vt 0.5328 2.0417
vt 0.5361 1.5048
vt 0.5361 1.7750
vt 0.5361 2.0417
vt 0.5636 1.6607
vt 0.5636 1.7750
vt 0.5636 2.0417
vt 0.5868 1.7750
vt 0.5868 1.7920
vt 0.5868 2.0417
vt 0.6143 1.7750
vt 0.6143 1.9479
vt 0.6143 2.0417
vt 0.6374 1.7750
vt 0.6374 2.0417
vt 0.6374 2.0792
vt 0.6431 1.7750
vt 0.6431 2.0417
vt 0.6641 1.7750
vt 0.6641 2.0417
vt 0.6649 1.7750
vt 0.6649 2.0417
vt 0.6649 2.2352
vt 0.6881 1.7750
vt 0.6881 2.0417
vt 0.6881 2.3665
vt 0.7155 1.7750
vt 0.7155 2.0417
vt 0.7155 2.5224
vt 0.7387 1.7750
vt 0.7387 2.0417
vt 0.7387 2.6537
vt 0.7662 1.7750
vt 0.7662 2.0417
vt 0.7662 2.8096
vt 0.7893 1.7750
vt 0.7893 2.0417
vt 0.7893 2.9409
vt 0.7990 1.7750
vt 0.7990 2.0417
vt 0.8168 1.7750
vt 0.8168 2.0417
vt 0.8168 3.0969
vt 0.8200 1.7750
vt 0.8200 2.0417
vt 0.8400 1.7750
vt 0.8400 2.0417
vt 0.8400 3.2282
vt 0.8675 1.7750
vt 0.8675 2.0417
vt 0.8675 3.3841
vt 0.8906 1.7750
vt 0.8906 2.0417
vt 0.8906 3.5154
vt 0.9181 1.7750
vt 0.9181 2.0417
vt 0.9181 3.6713
vt 0.9303 1.7750
vt 0.9303 2.0417
vt 0.9413 1.7750
vt 0.9413 2.0417
vt 0.9413 3.8027
vt 0.9513 1.7750
vt 0.9513 2.0417
vt 0.9688 1.7750
vt 0.9688 2.0417
vt 0.9688 3.9586
vt 0.9919 1.7750
vt 0.9919 2.0417
vt 0.9919 4.0899
vt 1.0194 1.7750
vt 1.0194 2.0417
vt 1.0194 4.2458
vt 1.0426 1.7750
vt 1.0426 2.0417
vt 1.0426 4.3771
vt 1.0701 1.7750
vt 1.0701 2.0417
vt 1.0701 4.5330
vt 1.0862 1.7750
vt 1.0862 2.0417
vt 1.0932 1.7750
vt 1.0932 2.0417
vt 1.0932 4.6644
vt 1.1073 1.7750
vt 1.1073 2.0417
vt 1.1207 1.7750
vt 1.1207 2.0417
vt 1.1207 4.8203
vt 1.1439 1.7750
vt 1.1439 2.0417
vt 1.1439 4.9516
vt 1.1714 1.7750
vt 1.1714 2.0417
vt 1.1714 5.1075
vt 1.1945 1.7750
vt 1.1945 2.0417
vt 1.1945 5.2388
vt 1.2175 1.7750
vt 1.2175 2.0417
vt 1.2220 1.7750
vt 1.2220 2.0417
vt 1.2220 5.3948
vt 1.2386 1.7750
vt 1.2386 2.0417
vt 1.2452 1.7750
vt 1.2452 2.0417
vt 1.2452 5.5261
vt 1.2727 1.7750
vt 1.2727 2.0417
vt 1.2727 5.6820
vt 1.2958 1.7750
vt 1.2958 2.0417
vt 1.2958 5.8133
vt 1.3233 1.7750
vt 1.3233 2.0417
vt 1.3233 5.9692
vt 1.3465 1.7750
vt 1.3465 2.0417
vt 1.3465 6.1005
vt 1.3497 1.7750
vt 1.3497 2.0417
vt 1.3497 6.8869
vt 1.3735 1.7750
vt 1.3735 2.0417
vt 1.3740 1.7750
vt 1.3740 2.0417
vt 1.3740 6.2565
vt 1.3945 1.7750
vt 1.3945 2.0417
vt 1.3971 1.7750
vt 1.3971 2.0417
vt 1.3971 6.3878
vt 1.4246 1.7750
vt 1.4246 2.0417
vt 1.4246 6.5437
vt 1.4478 1.7750
vt 1.4478 2.0417
vt 1.4478 6.6750
vt 1.4810 1.7750
vt 1.4810 2.0417
vt 1.4810 6.8638
vt 1.5048 1.7750
vt 1.5048 2.0417
vt 1.5258 1.7750
vt 1.5258 2.0417
vt 1.5583 6.9178
vt 1.6607 1.7750
vt 1.6607 2.0417
vt 1.6817 1.7750
vt 1.6817 2.0417
vt 1.7920 1.7750
vt 1.7920 2.0417
vt 1.8130 1.7750
vt 1.8130 2.0417
vt 1.9479 1.7750
vt 1.9479 2.0417
vt 1.9690 1.7750
vt 1.9690 2.0417
vt 2.0792 1.7750
vt 2.0792 2.0417
vt 2.1003 1.7750
vt 2.1003 2.0417
vt 2.1706 12.3101
vt 2.2352 1.7750
vt 2.2352 2.0417
vt 2.2562 1.7750
vt 2.2562 2.0417
vt 2.3665 1.7750
vt 2.3665 2.0417
vt 2.3875 1.7750
vt 2.3875 2.0417
vt 2.5224 1.7750
vt 2.5224 2.0417
vt 2.5434 1.7750
vt 2.5434 2.0417
vt 2.6537 1.7750
vt 2.6537 2.0417
vt 2.6747 1.7750
vt 2.6747 2.0417
vt 2.8096 1.7750
vt 2.8096 2.0417
vt 2.8307 1.7750
vt 2.8307 2.0417
vt 2.9409 1.7750
vt 2.9409 2.0417
vt 2.9620 1.7750
vt 2.9620 2.0417
vt 3.0969 1.7750
vt 3.0969 2.0417
vt 3.1179 1.7750
vt 3.1179 2.0417
vt 3.2282 1.7750
vt 3.2282 2.0417
vt 3.2492 1.7750
vt 3.2492 2.0417
vt 3.3841 1.7750
vt 3.3841 2.0417
vt 3.4051 1.7750
vt 3.4051 2.0417
vt 3.5154 1.7750
vt 3.5154 2.0417
vt 3.5364 1.7750
vt 3.5364 2.0417
vt 3.6713 1.7750
vt 3.6713 2.0417
vt 3.6924 1.7750
vt 3.6924 2.0417
vt 3.8027 1.7750
vt 3.8027 2.0417
vt 3.8237 1.7750
vt 3.8237 2.0417
vt 3.9586 1.7750
vt 3.9586 2.0417
vt 3.9796 1.7750
vt 3.9796 2.0417
vt 4.0899 1.7750
vt 4.0899 2.0417
vt 4.1109 1.7750
vt 4.1109 2.0417
vt 4.1676 23.6354
vt 4.2458 1.7750
vt 4.2458 2.0417
vt 4.2668 1.7750
vt 4.2668 2.0417
vt 4.3771 1.7750
vt 4.3771 2.0417
vt 4.3982 1.7750
vt 4.3982 2.0417
vt 4.5330 1.7750
vt 4.5330 2.0417
vt 4.5541 1.7750
vt 4.5541 2.0417
vt 4.6644 1.7750
vt 4.6644 2.0417
vt 4.6854 1.7750
vt 4.6854 2.0417
vt 4.8203 1.7750
vt 4.8203 2.0417
vt 4.8413 1.7750
vt 4.8413 2.0417
vt 4.9516 1.7750
vt 4.9516 2.0417
vt 4.9726 1.7750
vt 4.9726 2.0417
vt 5.1075 1.7750
vt 5.1075 2.0417
vt 5.1286 1.7750
vt 5.1286 2.0417
vt 5.2388 1.7750
vt 5.2388 2.0417
vt 5.2599 1.7750
vt 5.2599 2.0417
vt 5.3948 1.7750
vt 5.3948 2.0417
vt 5.4158 1.7750
vt 5.4158 2.0417
vt 5.5261 1.7750
vt 5.5261 2.0417
vt 5.5471 1.7750
vt 5.5471 2.0417
vt 5.6820 1.7750
vt 5.6820 2.0417
vt 5.7030 1.7750
vt 5.7030 2.0417
vt 5.8133 1.7750
vt 5.8133 2.0417
vt 5.8343 1.7750
vt 5.8343 2.0417
vt 5.9692 1.7750
vt 5.9692 2.0417
vt 5.9903 1.7750
vt 5.9903 2.0417
vt 6.1005 1.7750
vt 6.1005 2.0417
vt 6.1216 1.7750
vt 6.1216 2.0417
vt 6.2565 1.7750
vt 6.2565 2.0417
vt 6.2775 1.7750
vt 6.2775 2.0417
vt 6.3878 1.7750
vt 6.3878 2.0417
vt 6.4088 1.7750
vt 6.4088 2.0417
vt 6.5437 1.7750
vt 6.5437 2.0417
vt 6.5647 1.7750
vt 6.5647 2.0417
vt 6.6750 1.7750
vt 6.6750 2.0417
vt 6.6960 1.7750
vt 6.6960 2.0417
vt 6.8520 1.7750
vt 6.8520 2.0417
vt 6.8638 1.7750
vt 6.8638 2.0417
vt 6.8869 1.7750
vt 6.8869 2.0417
vt 6.9833 1.7750
vt 6.9833 2.0417
vt 7.1392 1.7750
vt 7.1392 2.0417
vt 7.2705 1.7750
vt 7.2705 2.0417
vt 7.4264 1.7750
vt 7.4264 2.0417
vt 7.5577 1.7750
vt 7.5577 2.0417
vt 7.7137 1.7750
vt 7.7137 2.0417
vt 7.8450 1.7750
vt 7.8450 2.0417
vt 8.0009 1.7750
vt 8.0009 2.0417
vt 8.1322 1.7750
vt 8.1322 2.0417
vt 8.2881 1.7750
vt 8.2881 2.0417
vt 8.4195 1.7750
vt 8.4195 2.0417
vt 8.5754 1.7750
vt 8.5754 2.0417
vt 8.7067 1.7750
vt 8.7067 2.0417
vt 8.8723 1.7750
vt 8.8723 2.0417
vt 8.8954 1.7750
vt 8.8954 2.0417
vn -0.985 0.000 -0.174
vn -0.174 0.000 0.985
vn -0.000 1.000 -0.000
vn 0.174 0.000 -0.985
vn 0.985 0.000 0.174
f 52/834/3 20/299/3 390/6/3
f 52/834/3 390/6/3 423/480/3
f 383/8/5 421/468/5 422/469/5
f 383/8/5 422/469/5 384/9/5
f 421/317/4 417/321/4 418/322/4
f 421/317/4 418/322/4 422/318/4
f 417/471/1 379/11/1 380/12/1
f 417/471/1 380/12/1 418/472/1
f 379/356/2 383/352/2 384/353/2
f 379/356/2 384/353/2 380/357/2
f 418/470/3 380/10/3 384/7/3
f 418/470/3 384/7/3 422/467/3
f 375/14/5 415/476/5 416/477/5
f 375/14/5 416/477/5 376/15/5
f 415/323/4 412/325/4 413/326/4
f 415/323/4 413/326/4 416/324/4
f 412/482/1 371/17/1 372/18/1
f 412/482/1 372/18/1 413/483/1
f 371/364/2 375/360/2 376/361/2
f 371/364/2 376/361/2 372/365/2
f 413/481/3 372/16/3 376/13/3
f 413/481/3 376/13/3 416/475/3
f 367/20/5 410/485/5 411/486/5
f 367/20/5 411/486/5 368/21/5
f 410/327/4 408/330/4 409/331/4
f 410/327/4 409/331/4 411/328/4
f 408/488/1 363/23/1 364/24/1
f 408/488/1 364/24/1 409/489/1
f 363/372/2 367/368/2 368/369/2
f 363/372/2 368/369/2 364/373/2
f 409/487/3 364/22/3 368/19/3
f 409/487/3 368/19/3 411/484/3
f 359/29/5 406/491/5 407/492/5
f 359/29/5 407/492/5 360/30/5
f 406/332/4 404/334/4 405/335/4
f 406/332/4 405/335/4 407/333/4
f 404/496/1 355/32/1 356/33/1
f 404/496/1 356/33/1 405/497/1
f 355/380/2 359/376/2 360/377/2
f 355/380/2 360/377/2 356/381/2
f 405/495/3 356/31/3 360/28/3
f 405/495/3 360/28/3 407/490/3
f 351/35/5 401/501/5 402/502/5
f 351/35/5 402/502/5 352/36/5
f 401/336/4 399/338/4 400/339/4
f 401/336/4 400/339/4 402/337/4
f 399/504/1 347/38/1 348/39/1
f 399/504/1 348/39/1 400/505/1
f 347/389/2 351/384/2 352/385/2
f 347/389/2 352/385/2 348/390/2
f 400/503/3 348/37/3 352/34/3
f 400/503/3 352/34/3 402/500/3
f 343/41/5 397/507/5 398/508/5
f 343/41/5 398/508/5 344/42/5
f 397/340/4 395/342/4 396/343/4
f 397/340/4 396/343/4 398/341/4
f 395/510/1 339/44/1 340/45/1
f 395/510/1 340/45/1 396/511/1
f 339/398/2 343/393/2 344/394/2
f 339/398/2 344/394/2 340/399/2
f 396/509/3 340/43/3 344/40/3
f 396/509/3 344/40/3 398/506/3
f 335/47/5 393/513/5 394/514/5
f 335/47/5 394/514/5 336/48/5
f 393/344/4 391/346/4 392/347/4
f 393/344/4 392/347/4 394/345/4
f 391/518/1 331/50/1 332/51/1
f 391/518/1 332/51/1 392/519/1
f 331/406/2 335/402/2 336/403/2
f 331/406/2 336/403/2 332/407/2
f 392/517/3 332/49/3 336/46/3
f 392/517/3 336/46/3 394/512/3
f 327/53/5 385/523/5 386/524/5
f 327/53/5 386/524/5 328/54/5
f 385/350/4 381/354/4 382/355/4
f 385/350/4 382/355/4 386/351/4
f 381/526/1 323/56/1 324/57/1
f 381/526/1 324/57/1 382/527/1
f 323/414/2 327/410/2 328/411/2
f 323/414/2 328/411/2 324/415/2
f 382/525/3 324/55/3 328/52/3
f 382/525/3 328/52/3 386/522/3
f 319/59/5 377/529/5 378/530/5
f 319/59/5 378/530/5 320/60/5
f 377/358/4 373/362/4 374/363/4
f 377/358/4 374/363/4 378/359/4
f 373/532/1 315/62/1 316/63/1
f 373/532/1 316/63/1 374/533/1
f 315/422/2 319/418/2 320/419/2
f 315/422/2 320/419/2 316/423/2
f 374/531/3 316/61/3 320/58/3
f 374/531/3 320/58/3 378/528/3
f 311/65/5 369/537/5 370/538/5
f 311/65/5 370/538/5 312/66/5
f 369/366/4 365/370/4 366/371/4
f 369/366/4 366/371/4 370/367/4
f 365/542/1 307/68/1 308/69/1
f 365/542/1 308/69/1 366/543/1
f 307/430/2 311/426/2 312/427/2
f 307/430/2 312/427/2 308/431/2
f 366/541/3 308/67/3 312/64/3
f 366/541/3 312/64/3 370/536/3
f 303/71/5 361/545/5 362/546/5
f 303/71/5 362/546/5 304/72/5
f 361/374/4 357/378/4 358/379/4
f 361/374/4 358/379/4 362/375/4
f 357/548/1 299/74/1 300/75/1
f 357/548/1 300/75/1 358/549/1
f 299/438/2 303/434/2 304/435/2
f 299/438/2 304/435/2 300/439/2
f 358/547/3 300/73/3 304/70/3
f 358/547/3 304/70/3 362/544/3
f 295/78/5 353/551/5 354/552/5
f 295/78/5 354/552/5 296/79/5
f 353/382/4 349/387/4 350/388/4
f 353/382/4 350/388/4 354/383/4
f 349/554/1 291/81/1 292/82/1
f 349/554/1 292/82/1 350/555/1
f 291/446/2 295/442/2 296/443/2
f 291/446/2 296/443/2 292/447/2
f 350/553/3 292/80/3 296/77/3
f 350/553/3 296/77/3 354/550/3
f 287/84/5 345/559/5 346/560/5
f 287/84/5 346/560/5 288/85/5
f 345/391/4 341/396/4 342/397/4
f 345/391/4 342/397/4 346/392/4
f 341/564/1 283/87/1 284/88/1
f 341/564/1 284/88/1 342/565/1
f 283/454/2 287/450/2 288/451/2
f 283/454/2 288/451/2 284/455/2
f 342/563/3 284/86/3 288/83/3
f 342/563/3 288/83/3 346/558/3
f 279/90/5 337/567/5 338/568/5
f 279/90/5 338/568/5 280/91/5
f 337/400/4 333/404/4 334/405/4
f 337/400/4 334/405/4 338/401/4
f 333/570/1 275/93/1 276/94/1
f 333/570/1 276/94/1 334/571/1
f 275/465/2 279/458/2 280/459/2
f 275/465/2 280/459/2 276/466/2
f 334/569/3 276/92/3 280/89/3
f 334/569/3 280/89/3 338/566/3
f 271/96/5 329/573/5 330/574/5
f 271/96/5 330/574/5 272/97/5
f 329/408/4 325/412/4 326/413/4
f 329/408/4 326/413/4 330/409/4
f 325/576/1 267/99/1 268/100/1
f 325/576/1 268/100/1 326/577/1
f 267/498/2 271/478/2 272/479/2
f 267/498/2 272/479/2 268/499/2
f 326/575/3 268/98/3 272/95/3
f 326/575/3 272/95/3 330/572/3
f 263/102/5 321/583/5 322/584/5
f 263/102/5 322/584/5 264/103/5
f 321/416/4 317/420/4 318/421/4
f 321/416/4 318/421/4 322/417/4
f 317/586/1 259/105/1 260/106/1
f 317/586/1 260/106/1 318/587/1
f 259/539/2 263/520/2 264/521/2
f 259/539/2 264/521/2 260/540/2
f 318/585/3 260/104/3 264/101/3
f 318/585/3 264/101/3 322/582/3
f 255/108/5 313/589/5 314/590/5
f 255/108/5 314/590/5 256/109/5
f 313/424/4 309/428/4 310/429/4
f 313/424/4 310/429/4 314/425/4
f 309/592/1 251/111/1 252/112/1
f 309/592/1 252/112/1 310/593/1
f 251/580/2 255/561/2 256/562/2
f 251/580/2 256/562/2 252/581/2
f 310/591/3 252/110/3 256/107/3
f 310/591/3 256/107/3 314/588/3
f 247/114/5 305/595/5 306/596/5
f 247/114/5 306/596/5 248/115/5
f 305/432/4 301/436/4 302/437/4
f 305/432/4 302/437/4 306/433/4
f 301/598/1 243/117/1 244/118/1
f 301/598/1 244/118/1 302/599/1
f 243/624/2 247/605/2 248/606/2
f 243/624/2 248/606/2 244/625/2
f 302/597/3 244/116/3 248/113/3
f 302/597/3 248/113/3 306/594/3
f 239/120/5 297/603/5 298/604/5
f 239/120/5 298/604/5 240/121/5
f 297/440/4 293/444/4 294/445/4
f 297/440/4 294/445/4 298/441/4
f 293/608/1 235/123/1 236/124/1
f 293/608/1 236/124/1 294/609/1
f 235/665/2 239/646/2 240/647/2
f 235/665/2 240/647/2 236/666/2
f 294/607/3 236/122/3 240/119/3
f 294/607/3 240/119/3 298/602/3
f 231/126/5 289/611/5 290/612/5
f 231/126/5 290/612/5 232/127/5
f 289/448/4 285/452/4 286/453/4
f 289/448/4 286/453/4 290/449/4
f 285/614/1 227/129/1 228/130/1
f 285/614/1 228/130/1 286/615/1
f 227/706/2 231/687/2 232/688/2
f 227/706/2 232/688/2 228/707/2
f 286/613/3 228/128/3 232/125/3
f 286/613/3 232/125/3 290/610/3
f 223/132/5 281/617/5 282/618/5
f 223/132/5 282/618/5 224/133/5
f 281/456/4 277/463/4 278/464/4
f 281/456/4 278/464/4 282/457/4
f 277/622/1 219/135/1 220/136/1
f 277/622/1 220/136/1 278/623/1
f 219/750/2 223/731/2 224/732/2
f 219/750/2 224/732/2 220/751/2
f 278/621/3 220/134/3 224/131/3
f 278/621/3 224/131/3 282/616/3
f 215/138/5 273/627/5 274/628/5
f 215/138/5 274/628/5 216/139/5
f 273/473/4 269/493/4 270/494/4
f 273/473/4 270/494/4 274/474/4
f 269/630/1 211/141/1 212/142/1
f 269/630/1 212/142/1 270/631/1
f 211/791/2 215/772/2 216/773/2
f 211/791/2 216/773/2 212/792/2
f 270/629/3 212/140/3 216/137/3
f 270/629/3 216/137/3 274/626/3
f 207/144/5 265/633/5 266/634/5
f 207/144/5 266/634/5 208/145/5
f 265/515/4 261/534/4 262/535/4
f 265/515/4 262/535/4 266/516/4
f 261/636/1 203/148/1 204/149/1
f 261/636/1 204/149/1 262/637/1
f 203/832/2 207/816/2 208/817/2
f 203/832/2 208/817/2 204/833/2
f 262/635/3 204/147/3 208/143/3
f 262/635/3 208/143/3 266/632/3
f 199/151/5 257/639/5 258/640/5
f 199/151/5 258/640/5 200/152/5
f 257/556/4 253/578/4 254/579/4
f 257/556/4 254/579/4 258/557/4
f 253/644/1 195/153/1 196/155/1
f 253/644/1 196/155/1 254/645/1
f 195/841/2 199/837/2 200/838/2
f 195/841/2 200/838/2 196/842/2
f 254/643/3 196/154/3 200/150/3
f 254/643/3 200/150/3 258/638/3
f 191/156/5 249/649/5 250/650/5
f 191/156/5 250/650/5 192/158/5
f 249/600/4 245/619/4 246/620/4
f 249/600/4 246/620/4 250/601/4
f 245/652/1 187/159/1 188/160/1
f 245/652/1 188/160/1 246/653/1
f 187/849/2 191/845/2 192/846/2
f 187/849/2 192/846/2 188/850/2
f 246/651/3 188/161/3 192/157/3
f 246/651/3 192/157/3 250/648/3
f 183/162/5 241/655/5 242/656/5
f 183/162/5 242/656/5 184/163/5
f 241/641/4 237/660/4 238/661/4
f 241/641/4 238/661/4 242/642/4
f 237/658/1 179/165/1 180/166/1
f 237/658/1 180/166/1 238/659/1
f 179/858/2 183/854/2 184/855/2
f 179/858/2 184/855/2 180/859/2
f 238/657/3 180/167/3 184/164/3
f 238/657/3 184/164/3 242/654/3
f 175/168/5 233/663/5 234/664/5
f 175/168/5 234/664/5 176/169/5
f 233/682/4 229/704/4 230/705/4
f 233/682/4 230/705/4 234/683/4
f 229/668/1 171/171/1 172/172/1
f 229/668/1 172/172/1 230/669/1
f 171/866/2 175/862/2 176/863/2
f 171/866/2 176/863/2 172/867/2
f 230/667/3 172/173/3 176/170/3
f 230/667/3 176/170/3 234/662/3
f 167/174/5 225/671/5 226/672/5
f 167/174/5 226/672/5 168/175/5
f 225/726/4 221/745/4 222/746/4
f 225/726/4 222/746/4 226/727/4
f 221/674/1 163/177/1 164/178/1
f 221/674/1 164/178/1 222/675/1
f 163/874/2 167/870/2 168/871/2
f 163/874/2 168/871/2 164/875/2
f 222/673/3 164/179/3 168/176/3
f 222/673/3 168/176/3 226/670/3
f 159/180/5 217/677/5 218/678/5
f 159/180/5 218/678/5 160/181/5
f 217/767/4 213/786/4 214/787/4
f 217/767/4 214/787/4 218/768/4
f 213/680/1 155/183/1 156/184/1
f 213/680/1 156/184/1 214/681/1
f 155/882/2 159/878/2 160/879/2
f 155/882/2 160/879/2 156/883/2
f 214/679/3 156/185/3 160/182/3
f 214/679/3 160/182/3 218/676/3
f 151/186/5 209/685/5 210/686/5
f 151/186/5 210/686/5 152/187/5
f 209/811/4 205/830/4 206/831/4
f 209/811/4 206/831/4 210/812/4
f 205/690/1 147/189/1 148/190/1
f 205/690/1 148/190/1 206/691/1
f 147/890/2 151/886/2 152/887/2
f 147/890/2 152/887/2 148/891/2
f 206/689/3 148/191/3 152/188/3
f 206/689/3 152/188/3 210/684/3
f 143/192/5 201/693/5 202/694/5
f 143/192/5 202/694/5 144/193/5
f 201/835/4 197/839/4 198/840/4
f 201/835/4 198/840/4 202/836/4
f 197/695/1 139/195/1 140/196/1
f 197/695/1 140/196/1 198/697/1
f 139/898/2 143/894/2 144/895/2
f 139/898/2 144/895/2 140/899/2
f 198/696/3 140/197/3 144/194/3
f 198/696/3 144/194/3 202/692/3
f 135/198/5 193/698/5 194/700/5
f 135/198/5 194/700/5 136/199/5
f 193/843/4 189/847/4 190/848/4
f 193/843/4 190/848/4 194/844/4
f 189/701/1 131/201/1 132/202/1
f 189/701/1 132/202/1 190/702/1
f 131/906/2 135/902/2 136/903/2
f 131/906/2 136/903/2 132/907/2
f 190/703/3 132/203/3 136/200/3
f 190/703/3 136/200/3 194/699/3
f 127/204/5 185/708/5 186/709/5
f 127/204/5 186/709/5 128/205/5
f 185/852/4 181/856/4 182/857/4
f 185/852/4 182/857/4 186/853/4
f 181/711/1 123/207/1 124/208/1
f 181/711/1 124/208/1 182/712/1
f 123/915/2 127/911/2 128/912/2
f 123/915/2 128/912/2 124/916/2
f 182/713/3 124/209/3 128/206/3
f 182/713/3 128/206/3 186/710/3
f 119/210/5 177/714/5 178/715/5
f 119/210/5 178/715/5 120/211/5
f 177/860/4 173/864/4 174/865/4
f 177/860/4 174/865/4 178/861/4
f 173/717/1 115/213/1 116/214/1
f 173/717/1 116/214/1 174/718/1
f 115/923/2 119/919/2 120/920/2
f 115/923/2 120/920/2 116/924/2
f 174/719/3 116/215/3 120/212/3
f 174/719/3 120/212/3 178/716/3
f 111/216/5 169/720/5 170/721/5
f 111/216/5 170/721/5 112/217/5
f 169/868/4 165/872/4 166/873/4
f 169/868/4 166/873/4 170/869/4
f 165/723/1 107/219/1 108/220/1
f 165/723/1 108/220/1 166/724/1
f 107/931/2 111/927/2 112/928/2
f 107/931/2 112/928/2 108/932/2
f 166/725/3 108/221/3 112/218/3
f 166/725/3 112/218/3 170/722/3
f 103/222/5 161/728/5 162/729/5
f 103/222/5 162/729/5 104/223/5
f 161/876/4 157/880/4 158/881/4
f 161/876/4 158/881/4 162/877/4
f 157/733/1 99/225/1 100/226/1
f 157/733/1 100/226/1 158/734/1
f 99/939/2 103/935/2 104/936/2
f 99/939/2 104/936/2 100/940/2
f 158/735/3 100/227/3 104/224/3
f 158/735/3 104/224/3 162/730/3
f 95/228/5 153/736/5 154/737/5
f 95/228/5 154/737/5 96/229/5
f 153/884/4 149/888/4 150/889/4
f 153/884/4 150/889/4 154/885/4
f 149/739/1 91/231/1 92/232/1
f 149/739/1 92/232/1 150/740/1
f 91/947/2 95/943/2 96/944/2
f 91/947/2 96/944/2 92/948/2
f 150/741/3 92/233/3 96/230/3
f 150/741/3 96/230/3 154/738/3
f 87/234/5 145/742/5 146/743/5
f 87/234/5 146/743/5 88/235/5
f 145/892/4 141/896/4 142/897/4
f 145/892/4 142/897/4 146/893/4
f 141/747/1 83/237/1 84/238/1
f 141/747/1 84/238/1 142/748/1
f 83/955/2 87/951/2 88/952/2
f 83/955/2 88/952/2 84/956/2
f 142/749/3 84/239/3 88/236/3
f 142/749/3 88/236/3 146/744/3
f 79/240/5 137/752/5 138/753/5
f 79/240/5 138/753/5 80/241/5
f 137/900/4 133/904/4 134/905/4
f 137/900/4 134/905/4 138/901/4
f 133/755/1 75/243/1 76/244/1
f 133/755/1 76/244/1 134/756/1
f 75/963/2 79/959/2 80/960/2
f 75/963/2 80/960/2 76/964/2
f 134/757/3 76/245/3 80/242/3
f 134/757/3 80/242/3 138/754/3
f 71/246/5 129/758/5 130/759/5
f 71/246/5 130/759/5 72/247/5
f 129/909/4 125/913/4 126/914/4
f 129/909/4 126/914/4 130/910/4
f 125/761/1 67/249/1 68/250/1
f 125/761/1 68/250/1 126/762/1
f 67/971/2 71/967/2 72/968/2
f 67/971/2 72/968/2 68/972/2
f 126/763/3 68/251/3 72/248/3
f 126/763/3 72/248/3 130/760/3
f 63/252/5 121/764/5 122/765/5
f 63/252/5 122/765/5 64/253/5
f 121/917/4 117/921/4 118/922/4
f 121/917/4 118/922/4 122/918/4
f 117/769/1 59/255/1 60/256/1
f 117/769/1 60/256/1 118/770/1
f 59/979/2 63/975/2 64/976/2
f 59/979/2 64/976/2 60/980/2
f 118/771/3 60/257/3 64/254/3
f 118/771/3 64/254/3 122/766/3
f 57/258/5 113/774/5 114/775/5
f 57/258/5 114/775/5 58/259/5
f 113/925/4 109/929/4 110/930/4
f 113/925/4 110/930/4 114/926/4
f 109/777/1 50/261/1 51/262/1
f 109/777/1 51/262/1 110/778/1
f 50/987/2 57/981/2 58/982/2
f 50/987/2 58/982/2 51/988/2
f 110/779/3 51/263/3 58/260/3
f 110/779/3 58/260/3 114/776/3
f 48/265/5 105/780/5 106/781/5
f 48/265/5 106/781/5 49/266/5
f 105/933/4 101/937/4 102/938/4
f 105/933/4 102/938/4 106/934/4
f 101/783/1 46/268/1 47/269/1
f 101/783/1 47/269/1 102/784/1
f 46/991/2 48/989/2 49/990/2
f 46/991/2 49/990/2 47/992/2
f 102/785/3 47/270/3 49/267/3
f 102/785/3 49/267/3 106/782/3
f 44/271/5 97/788/5 98/789/5
f 44/271/5 98/789/5 45/272/5
f 97/941/4 93/945/4 94/946/4
f 97/941/4 94/946/4 98/942/4
f 93/793/1 42/274/1 43/275/1
f 93/793/1 43/275/1 94/794/1
f 42/995/2 44/993/2 45/994/2
f 42/995/2 45/994/2 43/996/2
f 94/795/3 43/276/3 45/273/3
f 94/795/3 45/273/3 98/790/3
f 40/277/5 89/796/5 90/797/5
f 40/277/5 90/797/5 41/278/5
f 89/949/4 85/953/4 86/954/4
f 89/949/4 86/954/4 90/950/4
f 85/799/1 37/280/1 38/281/1
f 85/799/1 38/281/1 86/800/1
f 37/999/2 40/997/2 41/998/2
f 37/999/2 41/998/2 38/1000/2
f 86/801/3 38/282/3 41/279/3
f 86/801/3 41/279/3 90/798/3
f 35/283/5 81/802/5 82/803/5
f 35/283/5 82/803/5 36/284/5
f 81/957/4 77/961/4 78/962/4
f 81/957/4 78/962/4 82/958/4
f 77/805/1 33/287/1 34/288/1
f 77/805/1 34/288/1 78/806/1
f 33/1003/2 35/1001/2 36/1002/2
f 33/1003/2 36/1002/2 34/1004/2
f 78/807/3 34/289/3 36/285/3
f 78/807/3 36/285/3 82/804/3
f 31/290/5 73/813/5 74/814/5
f 31/290/5 74/814/5 32/291/5
f 73/965/4 69/969/4 70/970/4
f 73/965/4 70/970/4 74/966/4
f 69/818/1 29/293/1 30/294/1
f 69/818/1 30/294/1 70/819/1
f 29/1007/2 31/1005/2 32/1006/2
f 29/1007/2 32/1006/2 30/1008/2
f 70/820/3 30/295/3 32/292/3
f 70/820/3 32/292/3 74/815/3
f 27/296/5 65/821/5 66/822/5
f 27/296/5 66/822/5 28/297/5
f 65/973/4 61/977/4 62/978/4
f 65/973/4 62/978/4 66/974/4
f 61/824/1 25/300/1 26/301/1
f 61/824/1 26/301/1 62/825/1
f 25/1011/2 27/1009/2 28/1010/2
f 25/1011/2 28/1010/2 26/1012/2
f 62/826/3 26/302/3 28/298/3
f 62/826/3 28/298/3 66/823/3
f 383/8/5 387/26/5 388/27/5
f 383/8/5 388/27/5 384/9/5
f 387/348/4 23/1013/4 24/1014/4
f 387/348/4 24/1014/4 388/349/4
f 23/306/1 21/303/1 22/304/1
f 23/306/1 22/304/1 24/307/1
f 21/1015/2 383/352/2 384/353/2
f 21/1015/2 384/353/2 22/1016/2
f 24/308/3 22/305/3 384/7/3
f 24/308/3 384/7/3 388/25/3
f 419/461/5 421/468/5 422/469/5
f 419/461/5 422/469/5 420/462/5
f 421/317/4 55/983/4 56/984/4
f 421/317/4 56/984/4 422/318/4
f 55/827/1 53/808/1 54/809/1
f 55/827/1 54/809/1 56/828/1
f 53/985/2 419/319/2 420/320/2
f 53/985/2 420/320/2 54/986/2
f 56/829/3 54/810/3 420/460/3
f 56/829/3 420/460/3 422/467/3
f 18/395/3 15/309/3 19/299/3
f 18/395/3 19/299/3 39/386/3
f 403/316/3 389/6/3 414/5/3
f 403/316/3 414/5/3 424/314/3
f 8/908/3 7/329/3 11/313/3
f 8/908/3 11/313/3 12/851/3
f 6/4/3 4/2/3 9/1/3
f 6/4/3 9/1/3 10/3/3
f 14/311/3 13/286/3 16/264/3
f 14/311/3 16/264/3 17/310/3
f 2/315/3 1/146/3 3/76/3
f 2/315/3 3/76/3 5/312/3
